<ttFont>
          <CharString index="0">
            169 -10 rmoveto
            58 59 35 57 39 hvcurveto
            3 -2 rlineto
            -61 7 29 -29 53 hhcurveto
            43 30 19 48 31 hvcurveto
            -17 15 rlineto
            -21 -17 -13 -8 -19 hhcurveto
            -29 -8 18 66 hvcurveto
            229 vlineto
            84 -2 24 -11 23 vhcurveto
            34 -17 -42 19 -57 hhcurveto
            -43 -45 -11 -20 -39 hvcurveto
            -65 -33 -43 -51 -44 vvcurveto
            -29 19 -19 27 30 22 24 34 vhcurveto
            11 -2 13 11 vvcurveto
            47 36 29 57 54 callgsubr
            vhcurveto
            -98 vlineto
            -201 -43 -73 -47 -87 vvcurveto
            -72 49 -50 71 vhcurveto
            return
          </CharString>
          <CharString index="1">
            402 495 rmoveto
            -381 vlineto
            -45 -36 -46 -25 -46 hhcurveto
            -34 -26 14 23 -10 hvcurveto
            -9 20 -3 30 62 vvcurveto
            337 -31 callsubr
            -302 vlineto
            -92 3 -26 11 -24 vhcurveto
            -39 19 41 -22 54 hhcurveto
            67 64 33 59 48 hvcurveto
            4 -1 rlineto
            -91 7 vlineto
            75 callgsubr
            -170 -20 vlineto
            return
          </CharString>
          <CharString index="2">
            418 780 rmoveto
            -207 -156 -170 -225 -225 156 -170 207 207 156 170 225 225 -156 170 -207 hvcurveto
            -237 -394 rmoveto
            219 89 130 149 148 88 -129 -218 -221 -89 -132 -148 -148 -89 132 219 vhcurveto
            return
          </CharString>
          <CharString index="3">
            35 rmoveto
            388 vlineto
            40 34 46 22 48 hhcurveto
            40 25 -15 -31 13 hvcurveto
            9 -22 3 -32 -57 vvcurveto
            -294 vlineto
            -75 -14 rlineto
            -20 245 20 vlineto
            -75 14 rlineto
            304 vlineto
            96 -2 25 -11 21 vhcurveto
            37 -19 -44 23 -53 4 callsubr
            return
          </CharString>
          <CharString index="4">
            384 hmoveto
            100 63 17 42 58 hvcurveto
            93 68 55 120 136 vvcurveto
            131 -51 114 -90 69 vhcurveto
            53 -70 -85 20 -159 hhcurveto
            -249 -23 hlineto
            -87 callgsubr
            vlineto
            294 38 rmoveto
            -79 -25 14 46 hvcurveto
            632 79 vlineto
            112 62 -20 -53 51 hvcurveto
            56 -59 29 -90 -113 vvcurveto
            -112 -29 -98 -53 -66 vhcurveto
            -58 -48 -57 -23 -98 hhcurveto
            return
          </CharString>
          <CharString index="5">
            373 -10 rmoveto
            167 523 196 -523 rlineto
            23 hlineto
            206 646 23 72 16 23 106 16 rlinecurve
            23 -281 -23 vlineto
            77 -11 24 -16 -34 vvcurveto
            -15 -3 -14 -6 -19 vhcurveto
            -141 -455 rlineto
            -5 hlineto
            -169 487 rlineto
            -7 19 -4 14 11 vvcurveto
            20 7 7 96 6 vhcurveto
            23 -325 -23 vlineto
            70 -5 15 -10 17 -46 41 -110 rcurveline
            -122 -393 rlineto
            -5 hlineto
            -169 487 rlineto
            -10 28 -3 9 10 vvcurveto
            18 11 5 94 7 vhcurveto
            23 -325 -23 vlineto
            70 -5 15 -10 17 -46 261 -696 rcurveline
            return
          </CharString>
          <CharString index="6">
            rmoveto
            99 124 rlineto
            22 27 8 17 17 vvcurveto
            25 -18 18 -21 -29 -16 -18 -29 -10 vhcurveto
            -56 -170 rlineto
            return
          </CharString>
          <CharString index="7">
            49 hmoveto
            304 23 hlineto
            -114 19 rlineto
            308 96 vlineto
            224 -350 rlineto
            217 23 hlineto
            -114 19 -213 320 rlineto
            106 25 62 64 100 vvcurveto
            142 -110 77 -157 vhcurveto
            -301 -23 hlineto
            -79 callsubr
            190 366 rmoveto
            341 82 vlineto
            41 25 -3 -9 23 hvcurveto
            58 -23 34 -53 -81 vvcurveto
            -43 -11 -42 -29 -33 vhcurveto
            -33 -30 -44 -21 -84 hhcurveto
            return
          </CharString>
          <CharString index="8">
            rmoveto
            -25 -11 -10 -17 -17 hvcurveto
            -94 -96 20 -17 127 58 129 -58 19 17 -93 96 rlineto
            19 -19 -13 8 -23 hhcurveto
            endchar
          </CharString>
          <CharString index="9">
            rmoveto
            -42 -218 26 -1 10 30 23 56 39 71 rlinecurve
            12 22 rlineto
            318 hlineto
            -458 -702 rlineto
            -28 549 vlineto
            52 244 -26 3 -18 -45 -32 -73 -47 -71 rlinecurve
            -12 -18 rlineto
            -334 hlineto
            460 703 rlineto
            27 vlineto
            return
          </CharString>
          <CharString index="10">
            33 -6 -14 13 -26 hhcurveto
            -34 -22 -21 -31 -40 33 -27 49 34 31 12 22 20 hvcurveto
            16 16 17 27 14 42 195 571 rcurveline
            18 54 17 13 77 13 rrcurveto
            20 -225 -20 vlineto
            55 -3 22 -16 -24 vvcurveto
            -9 -2 -13 -5 -14 vhcurveto
            -94 -287 rlineto
            return
          </CharString>
          <CharString index="11">
            -91 -39 -33 -41 -53 vvcurveto
            -44 23 -31 35 -21 vhcurveto
            -26 44 63 -9 48 hhcurveto
            41 231 rmoveto
            117 -23 34 -21 -47 vvcurveto
            -39 -23 -28 -35 -17 vhcurveto
            -16 -32 -43 -8 -40 hhcurveto
            -42 -36 9 18 -27 hvcurveto
            -29 19 -17 29 36 vvcurveto
            46 29 44 47 21 vhcurveto
            27 -8 35 -8 35 -7 rrcurveto
            -6 253 rmoveto
            return
          </CharString>
          <CharString index="12">
            rmoveto
            -12 -198 21 -1 6 32 12 44 32 91 rlinecurve
            221 hlineto
            -312 -470 rlineto
            -28 411 vlineto
            7 191 -21 3 -8 -40 -18 -64 -23 -58 rlinecurve
            -232 hlineto
            316 471 rlineto
            27 vlineto
            return
          </CharString>
          <CharString index="13">
            118 9 81 80 88 vvcurveto
            47 -23 46 -39 32 vhcurveto
            27 7 15 24 16 25 -3 -26 29 hhcurveto
            26 21 20 27 31 -28 19 -30 -52 -31 -60 -48 -16 hvcurveto
            20 -32 -40 12 -45 hhcurveto
            -110 -84 -72 -99 -83 58 -60 77 -21 hvcurveto
            -110 -35 -22 -52 -32 vvcurveto
            -33 23 -29 45 -20 vhcurveto
            return
          </CharString>
          <CharString index="14">
            47 54 -39 47 hhcurveto
            49 35 49 69 hvcurveto
            -24 hlineto
            -25 -5 -17 -13 -28 hhcurveto
            return
          </CharString>
          <CharString index="15">
            rmoveto
            505 -9 vlineto
            -160 -48 rlineto
            -14 vlineto
            74 -27 rlineto
            -416 -64 callgsubr
            return
          </CharString>
          <CharString index="16">
            23 -89 callsubr
            return
          </CharString>
          <CharString index="17">
            334 84 callsubr
            -285 -23 vlineto
            -49 callgsubr
            239 rlineto
            -26 hlineto
            -22 -66 -22 -67 -40 -66 rrcurveto
            -289 688 hlineto
            return
          </CharString>
          <CharString index="18">
            -284 -23 vlineto
            -21 callgsubr
            return
          </CharString>
          <CharString index="19">
            -48 -27 30 54 69 44 30 141 28 hvcurveto
            -144 vlineto
            -42 -26 -41 -25 -43 hhcurveto
            return
          </CharString>
          <CharString index="20">
            194 35 rmoveto
            385 vlineto
            -14 callgsubr
            68 callgsubr
            return
          </CharString>
          <CharString index="21">
            95 vstem
            -87 callsubr
            373 -10 vlineto
            -159 -48 rlineto
            -14 vlineto
            74 -27 rlineto
            -706 -64 callgsubr
            return
          </CharString>
          <CharString index="22">
            -127 -96 -90 -121 hvcurveto
            -236 368 22 -197 vvcurveto
            -77 -57 -47 -92 -109 -61 67 161 -40 vhcurveto
            -25 -6 rlineto
            return
          </CharString>
          <CharString index="23">
            -62 -43 -65 -32 -80 hhcurveto
            -164 -94 129 223 223 92 126 165 89 62 -30 -76 47 hvcurveto
            15 -25 14 -29 12 -36 rrcurveto
            30 hlineto
            return
          </CharString>
          <CharString index="24">
            -35 57 49 -15 54 hhcurveto
            134 104 98 128 hvcurveto
            238 -355 -27 195 vvcurveto
            71 47 43 76 91 58 -60 -127 32 vhcurveto
            26 hlineto
            return
          </CharString>
          <CharString index="25">
            280 -24 vlineto
            -7 -40 -11 -40 -19 -40 rrcurveto
            -179 304 hlineto
            return
          </CharString>
          <CharString index="26">
            290 -10 rmoveto
            97 75 50 88 34 hvcurveto
            5 13 -19 10 -11 -15 rlineto
            -49 -36 -55 -24 -60 hhcurveto
            -109 -63 79 136 140 61 90 106 45 19 -14 -66 8 hvcurveto
            return
          </CharString>
          <CharString index="27">
            rmoveto
            152 44 rlineto
            52 15 16 19 23 vvcurveto
            return
          </CharString>
          <CharString index="28">
            85 -54 callgsubr
            -12 callgsubr
            return
          </CharString>
          <CharString index="29">
            830 rmoveto
            -135 -82 -66 -108 -89 55 -46 65 -34 hvcurveto
            -78 -26 -47 -59 -77 -207 331 50 -183 vvcurveto
            -69 -48 -42 -79 -67 -16 29 41 -16 vhcurveto
            hintmask 01111000
            43 -16 -10 20 -29 hhcurveto
            -31 -19 -22 -32 -65 78 -46 110 137 83 71 115 81 -42 46 -53 33 hvcurveto
            62 32 38 60 74 218 -329 -51 173 vvcurveto
            66 47 38 81 51 20 -15 -45 18 vhcurveto
            hintmask 10111000
            -40 16 10 -23 30 hhcurveto
            30 20 22 31 60 -77 42 -108 hvcurveto
            114 -517 rmoveto
            -45 -25 -38 -38 -21 vhcurveto
            -91 42 -103 22 88 vvcurveto
            50 35 42 52 14 vhcurveto
            88 -39 82 -36 -79 vvcurveto
            endchar
          </CharString>
          <CharString index="30">
            -45 -58 35 -46 hhcurveto
            -49 -35 -47 -67 hvcurveto
            endchar
          </CharString>
          <CharString index="31">
            -148 hlineto
            146 114 53 68 72 vvcurveto
            72 -56 55 -74 -65 -56 -42 -70 -26 vhcurveto
            20 -13 rlineto
            41 22 38 28 37 hhcurveto
            43 28 -33 -50 -69 -54 -78 -148 -138 hvcurveto
            5 -35 rlineto
            endchar
          </CharString>
          <CharString index="32">
            28 callsubr
            -43 223 -190 48 callgsubr
            hintmask 1011001010000000
            64 callsubr
            -85 callsubr
            hintmask 0111001100000000
            -20 callsubr
            hintmask 1011001010000000
            -83 callsubr
            hintmask 1010011100000000
            -20 callgsubr
            hintmask 1011001100000000
            23 callgsubr
            return
          </CharString>
          <CharString index="33">
            rmoveto
            -88 -69 -94 -121 -118 68 -92 89 89 69 93 117 120 -70 95 -88 hvcurveto
            -35 vmoveto
            45 18 -37 -142 -142 -17 -33 -46 -45 -17 32 143 142 17 37 45 hvcurveto
            return
          </CharString>
          <CharString index="34">
            -10 vlineto
            -155 -49 rlineto
            -13 vlineto
            74 -28 rlineto
            return
          </CharString>
          <CharString index="35">
            rmoveto
            -42 -39 -42 -23 -48 -10 rrcurveto
            -25 73 -325 vlineto
            -74 -15 rlineto
            -22 229 22 vlineto
            -74 15 rlineto
            418 vlineto
            return
          </CharString>
          <CharString index="36">
            rmoveto
            71 87 19 45 56 hvcurveto
            33 27 22 36 51 vvcurveto
            45 -17 58 -110 25 vhcurveto
            -69 16 -146 12 55 vvcurveto
            34 57 25 51 4 vhcurveto
            return
          </CharString>
          <CharString index="37">
            -8 callsubr
            -44 224 -190 -20 hstemhm
            56 126 hintmask 10110010
            -42 callsubr
            hintmask 01110010
            -42 callgsubr
            hintmask 10110010
            -84 callsubr
            hintmask 10100110
            -6 callgsubr
            hintmask 10110010
            -36 callsubr
            hvcurveto
            return
          </CharString>
          <CharString index="38">
            470 770 rlineto
            -70 hlineto
            -469 -770 rlineto
            return
          </CharString>
          <CharString index="39">
            rmoveto
            796 -9 vlineto
            -153 -49 rlineto
            -13 vlineto
            70 -26 rlineto
            -708 vlineto
            -70 -15 rlineto
            -19 231 19 vlineto
            return
          </CharString>
          <CharString index="40">
            -43 5 19 -20 35 hhcurveto
            29 17 23 34 64 -78 54 -102 -156 -110 -117 -165 -158 101 -110 143 hvcurveto
            return
          </CharString>
          <CharString index="41">
            40 346 40 120 -20 24 -20 200 40 return
          </CharString>
          <CharString index="42">
            440 rmoveto
            85 42 45 59 71 vvcurveto
            97 -86 71 -119 -126 -92 -80 -111 -73 41 -59 90 -59 vhcurveto
            hintmask 11100100
            -105 -54 -50 -65 -84 vvcurveto
            -118 99 -87 134 141 108 98 127 87 -51 69 -114 69 vhcurveto
            -47 20 rmoveto
            hintmask 11011000
            -106 48 -46 49 66 vvcurveto
            68 47 44 71 74 49 -49 -74 -58 -29 -50 -60 -44 vhcurveto
            -73 -84 rmoveto
            hintmask 11100100
            137 -61 57 -60 -84 vvcurveto
            -83 -56 -53 -87 -92 -56 61 100 77 34 64 63 39 vhcurveto
            endchar
          </CharString>
          <CharString index="43">
            670 rmoveto
            -42 -132 hlineto
            -137 -17 -93 -111 -152 vvcurveto
            -153 94 -107 136 -7 vhcurveto
            -121 42 122 vlineto
            83 8 64 48 31 80 5 13 rcurveline
            -19 10 -11 -15 rlineto
            -49 -36 -55 -24 -62 hhcurveto
            444 vlineto
            45 -5 26 -23 8 -51 rrcurveto
            -43 7 17 -20 35 hhcurveto
            hintmask 11110100
            29 17 23 34 hvcurveto
            hintmask 11111000
            63 -79 53 -105 2 vhcurveto
            -170 -262 rmoveto
            127 60 87 68 14 vhcurveto
            -438 vlineto
            -82 19 -46 74 117 vvcurveto
            endchar
          </CharString>
          <CharString index="44">
            rmoveto
            69 50 36 63 81 vvcurveto
            46 -28 39 -43 -38 -29 -29 -38 vhcurveto
            return
          </CharString>
          <CharString index="45">
            -52 callsubr
            246 20 vlineto
            return
          </CharString>
          <CharString index="46">
            rmoveto
            56 24 29 38 46 vvcurveto
            67 -58 46 -85 -89 -61 -52 -81 -53 25 -41 55 -36 vhcurveto
            hintmask 11100100
            -67 -29 -31 -39 -51 vvcurveto
            -78 62 -57 100 99 73 64 89 58 -33 43 -75 42 vhcurveto
            -36 18 rmoveto
            hintmask 11011000
            -68 32 -28 29 39 vvcurveto
            40 27 24 43 45 29 -28 -46 -34 -16 -30 -32 -26 vhcurveto
            -60 -79 rmoveto
            hintmask 11100100
            88 -36 37 -36 -47 vvcurveto
            -46 -33 -30 -51 -56 -33 37 65 43 17 33 31 17 vhcurveto
            endchar
          </CharString>
          <CharString index="47">
            0 90 -89 -21 724 76 hstemhm
            384 115 hintmask 10110000
            426 hmoveto
            hintmask 01110000
            13 -20 rlineto
            22 hlineto
            76 219 -22 8 rlineto
            hintmask 10110000
            -23 -42 -37 -53 -20 -22 rrcurveto
            -287 hlineto
            251 209 100 136 131 vvcurveto
            122 -86 92 -114 -101 -94 -73 -108 -40 vhcurveto
            21 -11 rlineto
            69 37 68 47 65 hhcurveto
            76 53 -65 -94 -127 -97 -140 -264 -255 hvcurveto
            9 -23 rlineto
            endchar
          </CharString>
          <CharString index="48">
            79 -32 33 -32 -43 vvcurveto
            -41 -30 -27 -45 -51 -30 33 59 38 16 30 28 15 vhcurveto
            return
          </CharString>
          <CharString index="49">
            90 -54 callgsubr
            -15 callsubr
            -23 return
          </CharString>
          <CharString index="50">
            rmoveto
            102 44 rlineto
            55 23 13 12 23 vvcurveto
            24 -17 18 -24 -19 -20 -12 -24 -22 vhcurveto
            -79 -87 rlineto
            return
          </CharString>
          <CharString index="51">
            rmoveto
            -97 11 68 -32 58 hhcurveto
            43 72 14 115 32 hvcurveto
            -34 hlineto
            return
          </CharString>
          <CharString index="52">
            -10 rmoveto
            149 104 101 145 135 -89 93 -128 -61 -60 -21 -31 -29 hvcurveto
            16 118 119 159 119 63 -8 25 rcurveline
            -229 -84 -148 -200 -222 vvcurveto
            -175 92 -106 153 vhcurveto
            6 45 rmoveto
            -82 -52 79 127 37 5 45 7 30 hvcurveto
            33 24 43 21 46 hhcurveto
            84 53 -72 -116 -112 -50 -72 -78 hvcurveto
            endchar
          </CharString>
          <CharString index="53">
            rmoveto
            2 11 15 1 9 hhcurveto
            60 41 -43 -70 -57 -31 -36 -45 hvcurveto
            hintmask 01101000
            -69 25 97 -59 hhcurveto
            -26 -17 -20 -28 -51 58 -40 73 101 80 78 96 74 -47 52 -72 7 hvcurveto
            4 vlineto
            hintmask 10110000
            50 13 39 39 52 vvcurveto
            61 -48 41 -68 -73 -59 -46 -68 -15 vhcurveto
            21 -9 rlineto
            37 19 37 25 38 hhcurveto
            33 23 -22 -35 -49 -43 -49 -70 -27 hvcurveto
            endchar
          </CharString>
          <CharString index="54">
            -233 rmoveto
            -15 17 30 -9 31 hhcurveto
            81 51 43 58 56 -44 42 -71 hvcurveto
            return
          </CharString>
          <CharString index="55">
            -76 -15 rlineto
            -20 return
          </CharString>
          <CharString index="56">
            rmoveto
            40 30 30 40 40 -30 30 -40 -40 -30 -30 -40 -40 28 -30 42 hvcurveto
            -35 70 rmoveto
            21 14 14 21 21 14 -14 -21 -21 -14 -14 -21 -21 -14 14 21 vhcurveto
            endchar
          </CharString>
          <CharString index="57">
            rmoveto
            49 133 rlineto
            7 20 5 15 12 vvcurveto
            22 -11 13 -18 -36 -13 -19 -33 -2 vhcurveto
            -7 -163 rlineto
            endchar
          </CharString>
          <CharString index="58">
            80 -41 -33 callsubr
            return
          </CharString>
          <CharString index="59">
            rmoveto
            -97 callgsubr
            return
          </CharString>
          <CharString index="60">
            -16 callsubr
            23 31 20 return
          </CharString>
          <CharString index="61">
            -106 15 rlineto
            464 return
          </CharString>
          <CharString index="62">
            rmoveto
            -101 -69 -65 -96 -85 60 -63 83 37 33 13 21 17 hvcurveto
            -10 -72 -75 -101 -74 -40 12 -27 rcurveline
            154 55 100 131 145 vvcurveto
            114 -63 70 -104 vhcurveto
            -4 -39 rmoveto
            44 29 -47 -75 -23 -3 -23 -5 -17 hvcurveto
            -22 -13 -23 -13 -24 hhcurveto
            -46 -28 42 67 68 26 43 43 hvcurveto
            endchar
          </CharString>
          <CharString index="63">
            rmoveto
            -91 -62 -58 -87 -76 54 -57 75 33 30 12 19 15 hvcurveto
            -9 -65 -68 -91 -66 -36 11 -24 rcurveline
            138 49 90 118 131 vvcurveto
            102 -57 63 -93 vhcurveto
            -4 -35 rmoveto
            40 26 -42 -68 -20 -3 -21 -4 -15 hvcurveto
            -20 -12 -21 -12 -21 hhcurveto
            -42 -25 38 60 61 24 39 38 hvcurveto
            endchar
          </CharString>
          <CharString index="64">
            rmoveto
            148 hlineto
            24 100 -18 10 -17 -29 rlineto
            -162 hlineto
            -33 -252 rlineto
            18 hlineto
            10 18 20 6 23 hhcurveto
            56 39 -37 -52 -52 -35 -37 -46 hvcurveto
            return
          </CharString>
          <CharString index="65">
            56 380 rmoveto
            -231 147 -159 215 82 67 23 53 71 vhcurveto
            return
          </CharString>
          <CharString index="66">
            rmoveto
            12 -22 rlineto
            19 hlineto
            52 169 -24 5 -16 -29 -18 -23 -14 -14 rlinecurve
            -165 hlineto
            163 127 58 75 80 vvcurveto
            81 -62 61 -82 -72 -62 -47 -78 -29 vhcurveto
            22 -14 rlineto
            45 24 43 31 41 hhcurveto
            47 32 -36 -56 -77 -61 -86 -164 -154 hvcurveto
            6 -38 rlineto
            endchar
          </CharString>
          <CharString index="67">
            vvcurveto
            -54 40 -34 62 43 35 17 37 32 vhcurveto
            return
          </CharString>
          <CharString index="68">
            -107 -10 73 245 32 169 31 return
          </CharString>
          <CharString index="69">
            757 rmoveto
            -3 8 -1 9 11 vvcurveto
            -23 7 -75 -190 21 -11 24 37 16 19 24 20 rlinecurve
            294 hlineto
            -247 -513 rlineto
            -24 -50 -16 -36 -27 vvcurveto
            -32 18 -19 30 30 22 20 38 12 vhcurveto
            117 363 17 49 123 285 -8 12 rcurveline
            endchar
          </CharString>
          <CharString index="70">
            hhcurveto
            -17 callsubr
            87 callgsubr
            return
          </CharString>
          <CharString index="71">
            39 -60 -77 22 -78 hhcurveto
            -214 -152 -166 -234 return
          </CharString>
          <CharString index="72">
            -57 62 82 -34 93 hhcurveto
            -204 195 rmoveto
            -22 54 -11 68 79 vvcurveto
            219 89 130 149 78 61 -36 -66 41 vhcurveto
            -181 -598 rmoveto
            -80 -63 39 70 -41 hvcurveto
            386 448 rlineto
            23 -55 12 -68 -81 vvcurveto
            -221 -89 -132 -148 vhcurveto
            return
          </CharString>
          <CharString index="73">
            rmoveto
            -2 5 -1 13 7 vvcurveto
            -22 5 -54 -162 21 -11 14 24 11 16 14 13 rlinecurve
            185 hlineto
            -159 -298 rlineto
            -17 -32 -9 -24 -18 vvcurveto
            -24 16 -16 26 22 16 16 29 10 vhcurveto
            75 226 12 28 84 185 -9 18 rcurveline
            endchar
          </CharString>
          <CharString index="74">
            41 -41 76 3 -20 hstemhm
            return
          </CharString>
          <CharString index="75">
            37 234 rlineto
            -33 hlineto
            return
          </CharString>
          <CharString index="76">
            -170 -20 vlineto
            75 -15 rlineto
            return
          </CharString>
          <CharString index="77">
            rmoveto
            51 181 179 49 -179 180 -51 -180 -180 -49 180 hlineto
            return
          </CharString>
          <CharString index="78">
            25 callsubr
            33 -552 rmoveto
            69 50 37 63 68 vvcurveto
            hintmask 11001000
            59 -29 39 -43 -38 -30 -29 -38 vhcurveto
            -61 76 4 -40 vvcurveto
            -23 -25 -35 -37 -28 vhcurveto
            endchar
          </CharString>
          <CharString index="79">
            vlineto
            -108 -36 -52 -46 -26 -21 16 38 -14 vhcurveto
            return
          </CharString>
          <CharString index="80">
            rmoveto
            -98 -76 -114 -147 -145 75 -111 99 99 77 112 144 146 -78 115 -98 hvcurveto
            -39 vmoveto
            50 20 -46 -175 -176 -19 -41 -51 -50 -19 40 177 175 19 46 50 hvcurveto
            endchar
          </CharString>
          <CharString index="81">
            21 23 36 70 -78 56 -98 4 hvcurveto
            95 -621 rmoveto
            -65 -37 -46 -58 -13 vhcurveto
            270 vlineto
            53 -36 42 -42 -68 vvcurveto
            -228 463 rmoveto
            65 37 42 54 8 vhcurveto
            -259 vlineto
            -52 35 -39 42 67 vvcurveto
            endchar
          </CharString>
          <CharString index="82">
            21 139 hlineto
            10 -25 -48 7 -45 hhcurveto
            return
          </CharString>
          <CharString index="83">
            rmoveto
            -88 -69 -102 -133 -130 68 -100 89 89 69 101 129 132 -70 103 -88 hvcurveto
            -35 vmoveto
            45 18 -41 -158 -158 -17 -37 -46 -45 -17 36 159 158 17 41 45 hvcurveto
            endchar
          </CharString>
          <CharString index="84">
            2 20 16 30 vhcurveto
            return
          </CharString>
          <CharString index="85">
            -75 -15 rlineto
            -19 276 19 vlineto
            -46 callsubr
            return
          </CharString>
          <CharString index="86">
            -35 vmoveto
            38 15 -33 -126 -126 -14 -29 -39 -38 -14 28 127 126 14 33 38 hvcurveto
            return
          </CharString>
          <CharString index="87">
            18 -256 rlineto
            20 hlineto
            40 41 rlineto
            return
          </CharString>
          <CharString index="88">
            587 rmoveto
            68 53 53 68 67 -54 55 -67 -68 -53 -54 -68 -68 53 -53 68 hvcurveto
            -80 121 rmoveto
            48 34 34 46 48 32 -34 -48 -46 -32 -34 -48 -46 -34 34 46 vhcurveto
            endchar
          </CharString>
          <CharString index="89">
            -95 -260 43 -43 119 651 20 return
          </CharString>
          <CharString index="90">
            -108 -89 -50 -77 -29 return
          </CharString>
          <CharString index="91">
            -23 callsubr
            45 return
          </CharString>
          <CharString index="92">
            -90 -19 rlineto
            return
          </CharString>
          <CharString index="93">
            -22 callsubr
            117 vlineto
            12 32 rlineto
            -129 55 hlineto
            86 7 49 14 30 vhcurveto
            35 16 28 14 30 hhcurveto
            32 11 -16 -36 7 hvcurveto
            return
          </CharString>
          <CharString index="94">
            -42 14 20 -19 29 hhcurveto
            33 22 24 34 55 -66 36 -112 return
          </CharString>
          <CharString index="95">
            -12 -32 rlineto
            88 -464 hlineto
            -22 callsubr
            232 -464 vlineto
            -22 callsubr
            222 return
          </CharString>
          <CharString index="96">
            rmoveto
            -68 185 66 185 -12 5 -137 -181 rlineto
            -19 vlineto
            139 -183 rlineto
            return
          </CharString>
          <CharString index="97">
            6 32 12 44 32 91 rrcurveto
            221 hlineto
            -312 -470 rlineto
            -28 411 vlineto
            7 191 -21 3 -8 -40 -18 -64 -23 -58 rlinecurve
            -232 hlineto
            316 471 rlineto
            return
          </CharString>
          <CharString index="98">
            715 -103 callgsubr
            return
          </CharString>
          <CharString index="99">
            107 -10 45 -14 -4 callsubr
            216 44 return
          </CharString>
          <CharString index="100">
            77 0 23 260 40 return
          </CharString>
          <CharString index="101">
            493 -687 rlineto
            31 hlineto
            return
          </CharString>
          <CharString index="102">
            2 -16 rlineto
            65 -363 hlineto
            -96 35 -46 73 57 50 27 48 32 vhcurveto
            -17 13 rlineto
            -28 -24 -26 -13 -30 hhcurveto
            -42 -13 25 79 hvcurveto
            354 135 vlineto
            return
          </CharString>
          <CharString index="103">
            -21 540 -20 return
          </CharString>
          <CharString index="104">
            87 61 64 -61 314 vlineto
            -40 6 -250 -346 10 -38 rlineto
            191 hlineto
            64 vmoveto
            -134 hlineto
            -2 4 132 175 rlineto
            4 hlineto
            endchar
          </CharString>
          <CharString index="105">
            -7 callgsubr
            -10 -20 hstemhm
            79 105 return
          </CharString>
          <CharString index="106">
            780 rmoveto
            -71 -67 -72 -41 -69 -22 rrcurveto
            -21 128 -587 vlineto
            -132 -20 rlineto
            -22 366 22 vlineto
            -129 20 rlineto
            730 vlineto
            endchar
          </CharString>
          <CharString index="107">
            107 -10 65 callsubr
            return
          </CharString>
          <CharString index="108">
            -51 -10 45 460 45 return
          </CharString>
          <CharString index="109">
            -47 -43 19 46 -16 hvcurveto
            endchar
          </CharString>
          <CharString index="110">
            20 -28 -45 13 -54 -37 callsubr
            -41 callgsubr
            return
          </CharString>
          <CharString index="111">
            hhcurveto
            -64 -67 -31 -54 -57 hvcurveto
            85 -73 callsubr
            -415 -64 callgsubr
            return
          </CharString>
          <CharString index="112">
            92 hlineto
            41 26 -3 -9 22 hvcurveto
            58 -23 34 -58 -86 vvcurveto
            -47 -10 -46 -30 -35 vhcurveto
            -34 -29 -45 -20 -84 hhcurveto
            -75 hlineto
            endchar
          </CharString>
          <CharString index="113">
            rmoveto
            -69 -50 -36 -63 -81 vvcurveto
            -46 28 -39 43 38 29 29 38 vhcurveto
            return
          </CharString>
          <CharString index="114">
            43 -46 -61 25 -70 hhcurveto
            -151 -112 -117 -158 -73 23 -63 40 -48 hvcurveto
            -78 -81 rlineto
            60 hlineto
            48 50 rlineto
            return
          </CharString>
          <CharString index="115">
            116 rmoveto
            65 vlineto
            -337 156 rlineto
            4 vlineto
            337 154 rlineto
            61 vlineto
            -409 -195 rlineto
            -51 vlineto
            endchar
          </CharString>
          <CharString index="116">
            63 callgsubr
            hstemhm
            90 20 callsubr
            return
          </CharString>
          <CharString index="117">
            -16 callgsubr
            139 -21 return
          </CharString>
          <CharString index="118">
            hstemhm
            18 callsubr
            return
          </CharString>
          <CharString index="119">
            -293 39 callgsubr
            return
          </CharString>
          <CharString index="120">
            -97 callgsubr
            -776 -28 callsubr
            return
          </CharString>
          <CharString index="121">
            141 -10 46 504 -20 215 45 return
          </CharString>
          <CharString index="122">
            rmoveto
            49 -410 -49 vlineto
            endchar
          </CharString>
          <CharString index="123">
            -47 -27 31 53 69 44 30 141 28 hvcurveto
            -47 7 -40 14 -35 vhcurveto
            -53 -33 -53 -36 -46 hhcurveto
            return
          </CharString>
          <CharString index="124">
            -106 64 -84 83 83 65 85 105 108 -66 87 -82 return
          </CharString>
          <CharString index="125">
            70 callsubr
            222 return
          </CharString>
          <CharString index="126">
            55 24 callsubr
            return
          </CharString>
          <CharString index="127">
            129 -112 95 return
          </CharString>
          <CharString index="128">
            -12 callgsubr
            -23 552 vlineto
            46 callgsubr
            return
          </CharString>
          <CharString index="129">
            -18 19 28 -10 31 hhcurveto
            return
          </CharString>
          <CharString index="130">
            -39 -23 -42 -16 -44 hhcurveto
            return
          </CharString>
          <CharString index="131">
            126 474 126 return
          </CharString>
          <CharString index="132">
            401 -89 callgsubr
            return
          </CharString>
          <CharString index="133">
            45 23 31 20 46 hhcurveto
            63 43 -36 -62 11 hvcurveto
            -2 -28 -1 -38 -52 vvcurveto
            endchar
          </CharString>
          <CharString index="134">
            -86 -73 -32 -51 -41 vhcurveto
            61 callsubr
            return
          </CharString>
          <CharString index="135">
            -68 -9 48 callsubr
            return
          </CharString>
          <CharString index="136">
            -32 callgsubr
            23 vlineto
            -89 19 rlineto
            return
          </CharString>
          <CharString index="137">
            423 11 -21 757 23 return
          </CharString>
          <CharString index="138">
            hstemhm
            49 89 -89 103 return
          </CharString>
          <CharString index="139">
            -202 210 84 hstem
            392 210 rmoveto
            84 -319 -84 vlineto
            endchar
          </CharString>
          <CharString index="140">
            -12 -31 -3 -36 -106 vvcurveto
            -76 hlineto
            return
          </CharString>
          <CharString index="141">
            -260 52 -52 152 return
          </CharString>
          <CharString index="142">
            42 21 -21 747 23 return
          </CharString>
          <CharString index="143">
            -10 41 -41 199 111 44 77 44 126 189 -41 41 hstemhm
            return
          </CharString>
          <CharString index="144">
            -169 rmoveto
            201 988 rlineto
            -69 hlineto
            -200 -988 rlineto
            endchar
          </CharString>
          <CharString index="145">
            550 -20 200 40 hstemhm
            326 105 return
          </CharString>
          <CharString index="146">
            -21 279 -20 hstemhm
            return
          </CharString>
          <CharString index="147">
            21 -4 callsubr
            return
          </CharString>
          <CharString index="148">
            89 -258 rlineto
            41 hlineto
            95 241 rlineto
            -210 vlineto
            -36 -8 rlineto
            return
          </CharString>
          <CharString index="149">
            40 227 49 199 -20 hstem
            43 99 142 97 vstem
            210 return
          </CharString>
          <CharString index="150">
            36 204 44 179 -20 hstem
            46 89 128 87 vstem
            196 return
          </CharString>
          <CharString index="151">
            171 -57 57 288 -20 hstemhm
            196 81 hintmask 10110000
            196 return
          </CharString>
          <CharString index="152">
            58 37 30 48 61 vvcurveto
            39 -24 32 -35 -32 -24 -24 -32 vhcurveto
            return
          </CharString>
          <CharString index="153">
            -52 -36 -57 -50 vvcurveto
            -52 39 -35 63 43 35 17 37 32 vhcurveto
            return
          </CharString>
          <CharString index="154">
            38 -38 125 98 242 -55 55 return
          </CharString>
          <CharString index="155">
            43 -7 callgsubr
            return
          </CharString>
          <CharString index="156">
            47 458 35 131 -20 return
          </CharString>
          <CharString index="157">
            -21 350 39 341 40 return
          </CharString>
          <CharString index="158">
            -3 callgsubr
            148 -21 return
          </CharString>
          <CharString index="159">
            -21 41 54 callsubr
            return
          </CharString>
          <CharString index="160">
            -225 -21 202 return
          </CharString>
          <CharString index="161">
            -21 770 -20 return
          </CharString>
          <CharString index="162">
            -25 5 11 -26 33 hhcurveto
            29 20 20 29 49 -57 36 -72 return
          </CharString>
          <CharString index="163">
            -79 callgsubr
            -42 return
          </CharString>
          <CharString index="164">
            -69 callsubr
            endchar
          </CharString>
          <CharString index="165">
            40 438 39 hstem
            46 105 139 106 vstem
            220 return
          </CharString>
          <CharString index="166">
            vvcurveto
            -76 hlineto
            -41 callgsubr
            return
          </CharString>
          <CharString index="167">
            36 394 35 hstem
            49 95 125 95 vstem
            206 return
          </CharString>
          <CharString index="168">
            20 -28 -45 13 -54 hhcurveto
            -17 callsubr
            hvcurveto
            return
          </CharString>
          <CharString index="169">
            -50 59 9 -39 vvcurveto
            -14 -20 -24 -28 -19 vhcurveto
            endchar
          </CharString>
          <CharString index="170">
            vlineto
            31 -77 23 -91 return
          </CharString>
          <CharString index="171">
            302 780 rmoveto
            return
          </CharString>
          <CharString index="172">
            45 735 -20 return
          </CharString>
          <CharString index="173">
            110 -61 61 return
          </CharString>
          <CharString index="174">
            63 callsubr
            -17 callsubr
            vhcurveto
            return
          </CharString>
          <CharString index="175">
            rmoveto
            -78 -15 rlineto
            -24 225 24 vlineto
            -58 15 rlineto
            return
          </CharString>
          <CharString index="176">
            9 83 callgsubr
            return
          </CharString>
          <CharString index="177">
            111 95 232 95 return
          </CharString>
          <CharString index="178">
            -21 485 55 return
          </CharString>
          <CharString index="179">
            21 -21 209 44 77 44 396 -20 hstem
            return
          </CharString>
          <CharString index="180">
            -352 841 -21 140 -20 hstem
            157 return
          </CharString>
          <CharString index="181">
            -10 38 -38 125 -94 -21 213 242 return
          </CharString>
          <CharString index="182">
            -10 rmoveto
            49 callgsubr
            return
          </CharString>
          <CharString index="183">
            0 24 -13 -21 496 54 -42 42 -10 -20 return
          </CharString>
          <CharString index="184">
            54 290 -20 hstem
            87 96 266 107 vstem
            return
          </CharString>
          <CharString index="185">
            652 -21 228 -20 hstem
            return
          </CharString>
          <CharString index="186">
            -148 -21 988 -20 hstem
            return
          </CharString>
          <CharString index="187">
            65 455 30 290 -20 return
          </CharString>
          <CharString index="188">
            -378 21 -21 830 -20 return
          </CharString>
          <CharString index="189">
            90 callsubr
            32 return
          </CharString>
          <CharString index="190">
            hstemhm
            135 40 return
          </CharString>
          <CharString index="191">
            747 rmoveto
            23 return
          </CharString>
          <CharString index="192">
            56 -56 97 -82 95 210 95 hintmask 11100110
            return
          </CharString>
          <CharString index="193">
            66 30 62 39 vvcurveto
            31 -17 19 -29 vhcurveto
            return
          </CharString>
          <CharString index="194">
            73 245 32 169 31 hstem
            47 100 return
          </CharString>
          <CharString index="195">
            -37 -10 45 -14 -21 495 45 -10 -20 return
          </CharString>
          <CharString index="196">
            34 rlineto
            5 hlineto
            -30 40 48 -16 50 hhcurveto
            return
          </CharString>
          <CharString index="197">
            21 -21 498 return
          </CharString>
        <CharString name=".notdef">
          -42 -260 82 1065 83 hstem
          50 90 345 90 vstem
          50 -260 rmoveto
          525 1230 -525 hlineto
          124 -1148 rmoveto
          311 957 rlineto
          -957 vlineto
          -345 1065 rmoveto
          310 hlineto
          -310 -957 rlineto
          endchar
        </CharString>
        <CharString name="A">
          -7 callsubr
          467 -20 hstem
          527 100 -105 callgsubr
          endchar
        </CharString>
        <CharString name="AE">
          45 callgsubr
          hstem
          470 106 vstem
          -70 callgsubr
          endchar
        </CharString>
        <CharString name="AEacute">
          45 callgsubr
          -40 230 hstemhm
          hintmask 11111000
          -70 callgsubr
          113 484 -80 callsubr
          hintmask 11110100
          -90 callgsubr
        </CharString>
        <CharString name="Aacute">
          -7 callsubr
          637 -20 hstem
          527 100 -105 callgsubr
          -61 202 -80 callsubr
          -90 callgsubr
        </CharString>
        <CharString name="Abreve">
          -7 callsubr
          507 82 callgsubr
          hintmask 11010000
          527 100 -105 callgsubr
          -134 345 -56 callsubr
          hintmask 11100000
          23 callsubr
          hintmask 11010000
          3 callgsubr
        </CharString>
        <CharString name="Acircumflex">
          -7 callsubr
          637 -20 hstem
          527 100 -105 callgsubr
          17 346 -99 callsubr
        </CharString>
        <CharString name="Adieresis">
          -7 callsubr
          507 110 hstem
          327 77 vstem
          527 100 -105 callgsubr
          -120 271 -102 callgsubr
        </CharString>
        <CharString name="Agrave">
          -7 callsubr
          637 -20 hstem
          527 100 -105 callgsubr
          101 223 rmoveto
          -144 107 rlineto
          -76 callgsubr
        </CharString>
        <CharString name="Amacron">
          -7 callsubr
          554 71 hstem
          527 100 -105 callgsubr
          146 263 -33 callgsubr
        </CharString>
        <CharString name="Aogonek">
          77 -256 55 201 23 260 40 467 -20 hstem
          474 88 vstem
          671 -47 callgsubr
          38 42 23 47 46 55 hvcurveto
          122 23 hlineto
          -70 5 -15 10 -17 46 -264 706 rcurveline
          -98 -54 26 -59 -194 -543 -25 -70 -14 -25 -106 -16 rlinecurve
          -23 281 23 vlineto
          -67 10 -36 16 36 vvcurveto
          12 4 15 7 20 vhcurveto
          54 151 rlineto
          242 hlineto
          66 -183 rlineto
          9 -24 2 -11 -9 vvcurveto
          -21 -11 -8 -92 -4 vhcurveto
          -23 153 vlineto
          -71 -54 -43 -62 -52 -40 callsubr
          -345 816 rmoveto
          105 -291 rlineto
          -213 hlineto
          104 291 rlineto
          endchar
        </CharString>
        <CharString name="Aring">
          -7 callsubr
          507 35 70 35 hstem
          310 70 vstem
          527 100 -105 callgsubr
          8 216 -51 callsubr
        </CharString>
        <CharString name="Aringacute">
          -7 callsubr
          507 35 70 34 1 -20 hstemhm
          309 70 hintmask 11110100
          245 825 rmoveto
          57 17 rlineto
          -8 11 15 -4 16 hhcurveto
          34 26 21 31 8 hvcurveto
          45 13 9 19 20 vvcurveto
          24 -24 11 -20 -14 -11 -4 -7 -12 vhcurveto
          hintmask 11101100
          8 -12 -14 4 -15 hhcurveto
          -40 -30 -30 -40 -8 1 -7 2 -7 hvcurveto
          -43 -32 rlineto
          110 19 rmoveto
          -21 -14 14 21 hvcurveto
          hintmask 11110100
          21 14 14 21 21 14 -14 -21 -21 -14 -14 -21 vhcurveto
          183 -765 -105 callgsubr
          endchar
        </CharString>
        <CharString name="Atilde">
          -7 callsubr
          519 -49 callsubr
          hintmask 11010100
          527 100 -105 callgsubr
          -113 229 -50 callgsubr
          hintmask 11100100
          -93 callsubr
          hintmask 11001000
          -77 callsubr
        </CharString>
        <CharString name="B">
          32 0 38 351 40 301 40 -15 callgsubr
          260 112 -82 82 -82 116 hintmask 11110010
          49 770 rmoveto
          -23 vlineto
          -87 callgsubr
          313 vlineto
          109 61 15 37 46 hvcurveto
          42 35 25 56 61 vvcurveto
          109 -79 82 -120 13 vhcurveto
          4 vlineto
          hintmask 11111000
          106 22 59 62 87 vvcurveto
          59 -28 54 -47 33 vhcurveto
          28 -41 -58 13 -92 hhcurveto
          -106 -40 rmoveto
          86 hlineto
          73 35 -10 -30 29 hvcurveto
          26 -27 11 -30 -47 vvcurveto
          -91 -41 -55 -73 -8 vhcurveto
          -2 -22 -23 -1 -39 hhcurveto
          -62 hlineto
          85 -40 rmoveto
          hintmask 11110100
          140 65 -56 -120 -120 -64 -55 -138 -68 -20 13 47 hvcurveto
          291 vlineto
          endchar
        </CharString>
        <CharString name="C">
          -8 callsubr
          -10 -20 hstemhm
          56 126 hintmask 10110100
          -42 callsubr
          hintmask 01110100
          -42 callgsubr
          hintmask 10110100
          -84 callsubr
          hintmask 10101100
          -6 callgsubr
          hintmask 10110100
          -36 callsubr
          hvcurveto
          endchar
        </CharString>
        <CharString name="CR">
          -377 endchar
        </CharString>
        <CharString name="Cacute">
          -70 callsubr
          275 436 -80 callsubr
          hintmask 10101010
          -90 callgsubr
        </CharString>
        <CharString name="Ccaron">
          -8 callsubr
          -10 -20 30 50 140 -20 hstemhm
          56 126 hintmask 10110011
          -42 callsubr
          hintmask 01110011
          -42 callgsubr
          hintmask 10110011
          -84 callsubr
          hintmask 10101111
          -6 callgsubr
          -36 callsubr
          hvcurveto
          385 450 -95 callgsubr
        </CharString>
        <CharString name="Ccedilla">
          107 65 callgsubr
          49 44 -14 -4 callsubr
          216 44 -10 -20 hstemhm
          56 126 276 75 hintmask 1110110110000000
          323 -53 callsubr
          18 49 74 3 62 23 66 49 rlinecurve
          hintmask 1101110110000000
          -42 callgsubr
          hintmask 1110110110000000
          -84 callsubr
          hintmask 1110101110000000
          -6 callgsubr
          hintmask 1110110110000000
          -36 callsubr
          -224 138 -156 205 -9 hvcurveto
          -49 -115 -73 callgsubr
          endchar
        </CharString>
        <CharString name="Ccircumflex">
          -70 callsubr
          hintmask 10101010
          377 580 -99 callsubr
        </CharString>
        <CharString name="Cdotaccent">
          -8 callsubr
          -10 -20 80 129 hstemhm
          56 126 195 129 hintmask 10110111
          -42 callsubr
          hintmask 01110111
          -42 callgsubr
          hintmask 10110111
          -84 callsubr
          hintmask 10101111
          -6 callgsubr
          hintmask 10110111
          -36 callsubr
          hvcurveto
          321 514 -103 callgsubr
          endchar
        </CharString>
        <CharString name="D">
          143 0 38 692 40 84 callgsubr
          389 125 vstem
          -103 callsubr
          endchar
        </CharString>
        <CharString name="Dcaron">
          143 0 38 692 40 0 50 80 callgsubr
          389 125 hintmask 11011100
          -103 callsubr
          hintmask 10111100
          41 782 -95 callgsubr
        </CharString>
        <CharString name="Dcroat">
          -68 callgsubr
        </CharString>
        <CharString name="Ddotbelow">
          143 -3 callgsubr
          127 38 692 40 84 callgsubr
          96 129 164 125 vstem
          -103 callsubr
          -8 -230 -103 callgsubr
          endchar
        </CharString>
        <CharString name="E">
          25 0 42 callgsubr
          hintmask 11011100
          526 730 rmoveto
          33 -57 23 -66 16 -57 rrcurveto
          24 hlineto
          -17 220 rlineto
          -556 -23 hlineto
          85 -19 rlineto
          -686 vlineto
          21 callsubr
          346 179 hlineto
          19 -40 12 -40 6 -40 rrcurveto
          24 hlineto
          hintmask 11101100
          -82 callsubr
          endchar
        </CharString>
        <CharString name="Eacute">
          25 0 -66 callsubr
          -40 230 -15 callgsubr
          hintmask 11011010
          526 730 rmoveto
          33 -57 23 -66 16 -57 rrcurveto
          24 hlineto
          -17 220 rlineto
          -556 -23 hlineto
          85 -19 rlineto
          -686 vlineto
          21 callsubr
          346 179 hlineto
          19 -40 12 -40 6 -40 rrcurveto
          24 hlineto
          hintmask 11101010
          -82 callsubr
          26 86 -80 callsubr
          hintmask 11010110
          -90 callgsubr
        </CharString>
        <CharString name="Ebreve">
          25 0 -66 callsubr
          60 82 callgsubr
          134 105 hintmask 11011101
          526 730 rmoveto
          33 -57 23 -66 16 -57 rrcurveto
          24 hlineto
          -17 220 rlineto
          -556 -23 hlineto
          85 -19 rlineto
          -686 vlineto
          21 callsubr
          346 179 hlineto
          19 -40 12 -40 6 -40 rrcurveto
          24 hlineto
          hintmask 11101011
          -82 callsubr
          -20 229 -56 callsubr
          hintmask 11011101
          23 callsubr
          hintmask 11011011
          3 callgsubr
        </CharString>
        <CharString name="Ecaron">
          25 0 -66 callsubr
          0 50 80 callgsubr
          hintmask 11011011
          526 730 rmoveto
          33 -57 23 -66 16 -57 rrcurveto
          24 hlineto
          -17 220 rlineto
          -556 -23 hlineto
          85 -19 rlineto
          -686 vlineto
          21 callsubr
          346 179 hlineto
          19 -40 12 -40 6 -40 rrcurveto
          24 hlineto
          hintmask 11101011
          -82 callsubr
          hintmask 11010111
          113 90 -95 callgsubr
        </CharString>
        <CharString name="Ecircumflex">
          25 0 -66 callsubr
          -40 230 -15 callgsubr
          hintmask 11011010
          526 730 rmoveto
          33 -57 23 -66 16 -57 rrcurveto
          24 hlineto
          -17 220 rlineto
          -556 -23 hlineto
          85 -19 rlineto
          -686 vlineto
          21 callsubr
          346 179 hlineto
          19 -40 12 -40 6 -40 rrcurveto
          24 hlineto
          hintmask 11101010
          -82 callsubr
          hintmask 11010110
          125 230 -99 callsubr
        </CharString>
        <CharString name="Edieresis">
          25 0 -66 callsubr
          60 110 -15 callgsubr
          -31 25 callgsubr
          hintmask 1101111010000000
          526 730 rmoveto
          33 -57 23 -66 16 -57 rrcurveto
          24 hlineto
          -17 220 rlineto
          -556 -23 hlineto
          85 -19 rlineto
          -686 vlineto
          21 callsubr
          346 179 hlineto
          19 -40 12 -40 6 -40 rrcurveto
          24 hlineto
          hintmask 1110111010000000
          -82 callsubr
          hintmask 1101110110000000
          -31 155 -102 callgsubr
        </CharString>
        <CharString name="Edotaccent">
          25 0 -66 callsubr
          60 129 -15 callgsubr
          64 129 hintmask 11011111
          526 730 rmoveto
          33 -57 23 -66 16 -57 rrcurveto
          24 hlineto
          -17 220 rlineto
          -556 -23 hlineto
          85 -19 rlineto
          -686 vlineto
          21 callsubr
          346 179 hlineto
          19 -40 12 -40 6 -40 rrcurveto
          24 hlineto
          hintmask 11101111
          -82 callsubr
          64 164 -103 callgsubr
          endchar
        </CharString>
        <CharString name="Edotbelow">
          25 -3 callgsubr
          127 42 callgsubr
          55 129 hintmask 11101111
          526 730 rmoveto
          33 -57 23 -66 16 -57 rrcurveto
          24 hlineto
          -17 220 rlineto
          -556 -23 hlineto
          85 -19 rlineto
          -686 vlineto
          21 callsubr
          346 179 hlineto
          19 -40 12 -40 6 -40 rrcurveto
          24 hlineto
          hintmask 11110111
          -82 callsubr
          55 -922 -103 callgsubr
          endchar
        </CharString>
        <CharString name="Egrave">
          25 0 -66 callsubr
          -40 230 -15 callgsubr
          hintmask 11011010
          526 730 rmoveto
          33 -57 23 -66 16 -57 rrcurveto
          24 hlineto
          -17 220 rlineto
          -556 -23 hlineto
          85 -19 rlineto
          -686 vlineto
          21 callsubr
          346 179 hlineto
          19 -40 12 -40 6 -40 rrcurveto
          24 hlineto
          hintmask 11101010
          -82 callsubr
          213 107 rmoveto
          -144 107 rlineto
          hintmask 11010110
          -76 callgsubr
        </CharString>
        <CharString name="Emacron">
          25 0 -66 callsubr
          107 71 -15 callgsubr
          hintmask 11011110
          526 730 rmoveto
          33 -57 23 -66 16 -57 rrcurveto
          24 hlineto
          -17 220 rlineto
          -556 -23 hlineto
          85 -19 rlineto
          -686 vlineto
          21 callsubr
          346 179 hlineto
          19 -40 12 -40 6 -40 rrcurveto
          24 hlineto
          hintmask 11101110
          -82 callsubr
          262 147 -33 callgsubr
        </CharString>
        <CharString name="Eng">
          160 34 callsubr
          129 54 callsubr
          83 callsubr
          419 105 -40 40 hintmask 10111010
          -100 callgsubr
          hintmask 10111100
          419 -584 rlineto
          -131 -28 callsubr
          hintmask 01111010
          30 -11 -16 16 -28 hhcurveto
          -36 -23 -25 -40 -54 46 -33 74 82 79 45 84 47 hvcurveto
          27 50 7 37 164 vvcurveto
          endchar
        </CharString>
        <CharString name="Eogonek">
          25 -256 55 201 42 callgsubr
          146 94 hintmask 11110111
          582 -47 callgsubr
          38 42 23 47 46 55 hvcurveto
          59 hlineto
          46 callgsubr
          346 14 callgsubr
          304 287 hlineto
          hintmask 11101111
          33 -57 23 -66 16 -57 rrcurveto
          24 hlineto
          -17 220 rlineto
          -556 -23 hlineto
          -87 callgsubr
          450 vlineto
          -71 -54 -43 -62 -52 -40 callsubr
          endchar
        </CharString>
        <CharString name="Eth">
          -68 callgsubr
        </CharString>
        <CharString name="Etilde">
          25 0 -66 callsubr
          72 -49 callsubr
          134 105 hintmask 1101110011000000
          526 730 rmoveto
          33 -57 23 -66 16 -57 rrcurveto
          24 hlineto
          -17 220 rlineto
          -556 -23 hlineto
          85 -19 rlineto
          -686 vlineto
          21 callsubr
          346 179 hlineto
          19 -40 12 -40 6 -40 rrcurveto
          24 hlineto
          hintmask 1110101011000000
          -82 callsubr
          -4 113 -50 callgsubr
          hintmask 1101110011000000
          -93 callsubr
          hintmask 1101100101000000
          -77 callsubr
        </CharString>
        <CharString name="Euro">
          -28 36 callsubr
          124 124 hintmask 10110110
          466 -69 callgsubr
        </CharString>
        <CharString name="Euro.tnum">
          -67 36 callsubr
          89 124 hintmask 10110110
          431 -69 callgsubr
        </CharString>
        <CharString name="F">
          -17 21 -21 386 40 120 -20 24 -20 200 40 -15 callgsubr
          hintmask 11011100
          526 730 rmoveto
          33 -57 23 -66 16 -57 rrcurveto
          24 hlineto
          -17 220 rlineto
          -556 -23 hlineto
          -87 callgsubr
          304 23 vlineto
          -114 19 rlineto
          344 179 vlineto
          19 -40 12 -40 6 -40 rrcurveto
          24 hlineto
          hintmask 11101100
          -82 callsubr
          endchar
        </CharString>
        <CharString name="G">
          14 callsubr
          -10 -20 hstemhm
          55 128 403 105 hintmask 11101100
          691 344 -48 callsubr
          -195 vlineto
          -34 -2 -8 -6 -10 vhcurveto
          -41 -25 -53 -20 -65 hhcurveto
          -169 -83 113 227 236 89 123 172 111 60 -50 -145 64 hvcurveto
          23 hlineto
          hintmask 11011100
          10 callgsubr
          hintmask 11101100
          -65 callgsubr
          endchar
        </CharString>
        <CharString name="Gbreve">
          14 callsubr
          -10 -20 80 82 callgsubr
          55 128 403 105 hintmask 11101011
          691 344 -48 callsubr
          -195 vlineto
          -34 -2 -8 -6 -10 vhcurveto
          -41 -25 -53 -20 -65 hhcurveto
          -169 -83 113 227 236 89 123 172 111 60 -50 -145 64 hvcurveto
          23 hlineto
          hintmask 11011011
          10 callgsubr
          hintmask 11100111
          -65 callgsubr
          -391 878 -56 callsubr
          hintmask 11101011
          23 callsubr
          hintmask 11100111
          3 callgsubr
        </CharString>
        <CharString name="Gcircumflex">
          14 callsubr
          -45 225 -190 -20 hstemhm
          55 128 403 105 hintmask 11100110
          691 344 -48 callsubr
          -195 vlineto
          -34 -2 -8 -6 -10 vhcurveto
          -41 -25 -53 -20 -65 hhcurveto
          -169 -83 113 227 236 89 123 172 111 60 -50 -145 64 hvcurveto
          23 hlineto
          hintmask 11001110
          10 callgsubr
          hintmask 11100110
          -65 callgsubr
          hintmask 11010110
          -254 879 -99 callsubr
        </CharString>
        <CharString name="Gcommaaccent">
          141 53 callsubr
          34 0 46 504 -20 215 45 -10 -20 hstemhm
          55 128 188 66 callsubr
          105 105 hintmask 1011101101000000
          691 344 -48 callsubr
          -195 vlineto
          -34 -2 -8 -6 -10 vhcurveto
          -41 -25 -53 -20 -65 hhcurveto
          -169 -83 113 227 236 89 123 172 111 60 -50 -145 64 hvcurveto
          23 hlineto
          hintmask 1101011101000000
          10 callgsubr
          hintmask 1101101101000000
          -65 callgsubr
          -298 -327 rmoveto
          -82 callgsubr
          hintmask 1101101011000000
          -74 callgsubr
        </CharString>
        <CharString name="Gdotaccent">
          14 callsubr
          -10 -20 80 129 hstemhm
          55 128 197 129 77 105 hintmask 11101111
          691 344 -48 callsubr
          -195 vlineto
          -34 -2 -8 -6 -10 vhcurveto
          -41 -25 -53 -20 -65 hhcurveto
          -169 -83 113 227 236 89 123 172 111 60 -50 -145 64 hvcurveto
          23 hlineto
          hintmask 11011111
          10 callgsubr
          hintmask 11101111
          -65 callgsubr
          -311 813 -103 callgsubr
          endchar
        </CharString>
        <CharString name="H">
          190 21 -21 385 40 345 -20 hstem
          135 105 378 -75 callgsubr
          endchar
        </CharString>
        <CharString name="Hbar">
          191 21 -21 385 40 122 65 -65 223 hstemhm
          135 105 378 105 hintmask 11101100
          135 42 rmoveto
          29 callsubr
          343 378 -343 vlineto
          -32 callgsubr
          21 vlineto
          -89 21 rlineto
          505 90 65 -90 116 vlineto
          89 17 rlineto
          hintmask 11011100
          25 -89 callsubr
          hintmask 11101100
          -116 -378 116 vlineto
          89 19 rlineto
          hintmask 11011100
          -91 callsubr
          hintmask 11101100
          -116 -80 -65 80 vlineto
          105 hmoveto
          378 -122 -378 hlineto
          endchar
        </CharString>
        <CharString name="Hcircumflex">
          190 21 -21 385 40 345 -20 210 -20 hstem
          135 105 378 -75 callgsubr
          -186 575 -99 callsubr
        </CharString>
        <CharString name="Hdotbelow">
          190 51 callsubr
          385 40 345 -20 hstem
          135 105 128 129 121 -75 callgsubr
          -250 -577 -103 callgsubr
          endchar
        </CharString>
        <CharString name="I">
          12 callsubr
          hstem
          135 105 vstem
          135 42 rmoveto
          29 callsubr
          686 vlineto
          -97 callgsubr
          endchar
        </CharString>
        <CharString name="IJ">
          69 34 callsubr
          129 54 callsubr
          hstemhm
          135 105 262 105 hintmask 10111100
          135 42 rmoveto
          29 callsubr
          686 vlineto
          -97 callgsubr
          472 hmoveto
          13 callsubr
          hintmask 01111100
          -63 callgsubr
          endchar
        </CharString>
        <CharString name="Iacute">
          12 callsubr
          220 -20 hstem
          135 105 vstem
          135 42 rmoveto
          29 callsubr
          686 vlineto
          -97 callgsubr
          -50 98 -80 callsubr
          -90 callgsubr
        </CharString>
        <CharString name="Ibreve">
          12 callsubr
          80 82 callgsubr
          135 105 hintmask 11011000
          135 42 rmoveto
          29 callsubr
          686 vlineto
          -97 callgsubr
          -89 231 -56 callsubr
          hintmask 11101000
          23 callsubr
          hintmask 11011000
          3 callgsubr
        </CharString>
        <CharString name="Icircumflex">
          12 callsubr
          211 -20 hstem
          135 105 vstem
          135 42 rmoveto
          29 callsubr
          686 vlineto
          -97 callgsubr
          53 233 -99 callsubr
        </CharString>
        <CharString name="Idieresis">
          12 callsubr
          107 110 hstemhm
          45 105 -15 105 -13 110 hintmask 11101000
          135 42 rmoveto
          hintmask 11110100
          -32 callgsubr
          23 vlineto
          hintmask 11101000
          -89 19 rlineto
          686 vlineto
          89 19 rlineto
          23 vlineto
          hintmask 11110100
          -284 -23 hlineto
          hintmask 11101000
          -21 callgsubr
          -95 184 rmoveto
          -30 22 -25 33 vhcurveto
          hintmask 11110100
          34 21 25 30 32 -21 23 -34 -33 -22 -23 -32 hvcurveto
          187 hmoveto
          -30 22 -25 33 34 21 25 30 32 -21 23 -34 -33 -22 -23 -32 vhcurveto
          endchar
        </CharString>
        <CharString name="Idotaccent">
          12 callsubr
          80 129 hstemhm
          135 105 -105 118 hintmask 11110000
          135 42 rmoveto
          29 callsubr
          686 vlineto
          -97 callgsubr
          -11 166 17 callgsubr
        </CharString>
        <CharString name="Idotbelow">
          -293 51 callsubr
          770 -20 hstemhm
          135 105 -105 118 hintmask 11110000
          135 42 rmoveto
          29 callsubr
          686 vlineto
          -97 callgsubr
          -11 -920 17 callgsubr
        </CharString>
        <CharString name="Igrave">
          12 callsubr
          210 -20 hstem
          135 105 vstem
          135 42 rmoveto
          29 callsubr
          686 vlineto
          -97 callgsubr
          169 109 rmoveto
          -144 107 rlineto
          -76 callgsubr
        </CharString>
        <CharString name="Imacron">
          12 callsubr
          127 71 hstem
          135 105 vstem
          135 42 rmoveto
          29 callsubr
          686 vlineto
          -97 callgsubr
          198 149 -33 callgsubr
        </CharString>
        <CharString name="Iogonek">
          -293 -256 55 222 54 callsubr
          hstemhm
          51 88 -4 105 hintmask 11110000
          248 -47 callgsubr
          38 42 23 47 46 55 hvcurveto
          121 23 hlineto
          hintmask 11101000
          -89 19 rlineto
          686 -4 callgsubr
          120 vlineto
          hintmask 11110000
          -71 -54 -43 -62 -52 -40 callsubr
          endchar
        </CharString>
        <CharString name="Itilde">
          12 callsubr
          92 -49 callsubr
          135 105 hintmask 11010110
          135 42 rmoveto
          29 callsubr
          686 vlineto
          -97 callgsubr
          -76 115 -50 callgsubr
          hintmask 11100110
          -93 callsubr
          hintmask 11001010
          -77 callsubr
        </CharString>
        <CharString name="J">
          -305 34 callsubr
          878 -20 hstemhm
          128 105 hintmask 10110000
          233 728 rmoveto
          13 callsubr
          hintmask 01110000
          -63 callgsubr
          endchar
        </CharString>
        <CharString name="Jcircumflex">
          -305 34 callsubr
          878 -20 210 -20 hstemhm
          128 105 hintmask 10111000
          233 728 rmoveto
          13 callsubr
          hintmask 01111000
          -63 callgsubr
          -52 805 -99 callsubr
        </CharString>
        <CharString name="K">
          116 21 -21 747 23 hstem
          135 105 vstem
          45 hmoveto
          284 23 hlineto
          -89 19 rlineto
          263 vlineto
          65 74 285 -379 rlineto
          217 23 hlineto
          -111 19 -321 417 198 226 32 37 22 9 92 16 rlinecurve
          23 -264 -23 vlineto
          59 -4 25 -9 -17 vvcurveto
          -8 -5 -10 -11 -12 vhcurveto
          -283 -317 rlineto
          358 vlineto
          -97 callgsubr
          -686 vlineto
          -15 callsubr
          endchar
        </CharString>
        <CharString name="Kcommaaccent">
          116 -225 -21 267 -21 747 23 hstemhm
          135 105 154 66 callsubr
          hintmask 11111000
          45 hmoveto
          284 23 hlineto
          -89 19 rlineto
          263 vlineto
          65 74 285 -379 rlineto
          217 23 hlineto
          -111 19 -321 417 198 226 32 37 22 9 92 16 rlinecurve
          23 -264 -23 vlineto
          59 -4 25 -9 -17 vvcurveto
          -8 -5 -10 -11 -12 vhcurveto
          -283 -317 rlineto
          358 vlineto
          -97 callgsubr
          -686 vlineto
          -15 callsubr
          371 -269 rmoveto
          -82 callgsubr
          hintmask 11110100
          -74 callgsubr
        </CharString>
        <CharString name="L">
          -11 0 40 730 -20 84 callgsubr
          vstem
          -90 callsubr
          endchar
        </CharString>
        <CharString name="Lacute">
          -11 0 40 730 -20 210 -20 84 callgsubr
          vstem
          -90 callsubr
          -154 88 -80 callsubr
          -90 callgsubr
        </CharString>
        <CharString name="Lcaron">
          -11 0 40 730 60 140 -20 84 callgsubr
          vstem
          -90 callsubr
          -52 102 -95 callgsubr
        </CharString>
        <CharString name="Lcommaaccent">
          -11 53 callsubr
          44 0 40 730 64 callgsubr
          50 66 callsubr
          hintmask 11011100
          334 84 callsubr
          -285 -23 vlineto
          -49 callgsubr
          239 rlineto
          -26 hlineto
          hintmask 10111100
          -22 -66 -22 -67 -40 -66 rrcurveto
          -289 688 hlineto
          72 -974 rmoveto
          58 34 30 45 57 vvcurveto
          hintmask 11011100
          36 -22 30 -32 -32 -24 -22 -29 vhcurveto
          hintmask 11011010
          -74 callgsubr
        </CharString>
        <CharString name="Ldot">
          -11 0 40 179 138 413 -20 84 callgsubr
          118 138 vstem
          -90 callsubr
          118 -441 -89 callgsubr
          endchar
        </CharString>
        <CharString name="Lslash">
          -10 0 40 730 -20 hstemhm
          59 181 -105 105 -105 200 hintmask 11001000
          335 84 callsubr
          -285 -23 vlineto
          85 -19 rlineto
          -316 vlineto
          hintmask 11100000
          -76 -41 rlineto
          -65 vlineto
          hintmask 11010000
          76 41 rlineto
          -305 vlineto
          -12 callgsubr
          -23 552 vlineto
          37 239 rlineto
          -26 hlineto
          -22 -66 -22 -67 -40 -66 rrcurveto
          -289 363 hlineto
          hintmask 11001000
          95 51 rlineto
          65 vlineto
          hintmask 11100000
          -95 -51 rlineto
          260 vlineto
          endchar
        </CharString>
        <CharString name="M">
          345 11 -21 31 54 callsubr
          83 callsubr
          598 105 hintmask 01111000
          135 42 rmoveto
          -15 callsubr
          -23 219 23 vlineto
          -89 19 rlineto
          618 4 vlineto
          hintmask 10111000
          279 -670 rlineto
          27 hlineto
          284 666 rlineto
          4 -614 hlineto
          -15 callsubr
          hintmask 01111000
          -23 284 23 vlineto
          -89 19 rlineto
          686 vlineto
          89 19 rlineto
          23 -209 vlineto
          -249 -593 rlineto
          -5 hlineto
          -249 593 rlineto
          -210 -23 hlineto
          -21 callgsubr
          endchar
        </CharString>
        <CharString name="N">
          11 callgsubr
          83 callsubr
          484 40 hintmask 01111000
          -100 callgsubr
          hintmask 10111000
          -6 callsubr
          endchar
        </CharString>
        <CharString name="NULL">
          -667 endchar
        </CharString>
        <CharString name="Nacute">
          11 callgsubr
          210 33 callgsubr
          hintmask 01111100
          -100 callgsubr
          hintmask 10111100
          -6 callsubr
          -325 836 -80 callsubr
          -90 callgsubr
        </CharString>
        <CharString name="Ncaron">
          11 callgsubr
          80 -20 160 33 callgsubr
          hintmask 01111110
          -100 callgsubr
          hintmask 10111110
          -6 callsubr
          -273 850 -95 callgsubr
        </CharString>
        <CharString name="Ncommaaccent">
          161 -225 -21 247 52 callsubr
          83 callsubr
          211 66 callsubr
          163 40 hintmask 10111101
          -100 callgsubr
          hintmask 11011101
          -6 callsubr
          -291 -226 rmoveto
          -82 callgsubr
          hintmask 10111011
          -74 callgsubr
        </CharString>
        <CharString name="Ndotaccent">
          11 callgsubr
          80 129 83 callsubr
          204 129 151 40 hintmask 01111110
          -100 callgsubr
          hintmask 10111110
          -6 callsubr
          -320 914 -103 callgsubr
          endchar
        </CharString>
        <CharString name="Ntilde">
          11 callgsubr
          92 80 -41 41 -41 76 3 33 callgsubr
          hintmask 0111001110000000
          -100 callgsubr
          hintmask 1010101110000000
          -6 callsubr
          -402 863 -50 callgsubr
          hintmask 0111001110000000
          -93 callsubr
          hintmask 0110010110000000
          -77 callsubr
        </CharString>
        <CharString name="O">
          -17 callgsubr
          hstem
          19 callsubr
          vstem
          -105 callsubr
          endchar
        </CharString>
        <CharString name="OE">
          479 -10 50 -19 -21 386 40 120 -20 24 -20 205 35 10 -20 hstemhm
          55 126 407 105 hintmask 1010110110000000
          980 730 rmoveto
          33 -57 23 -66 16 -57 rrcurveto
          24 hlineto
          -17 220 rlineto
          -534 hlineto
          hintmask 1010101110000000
          6 -33 -33 4 -32 hhcurveto
          -216 -156 -165 -230 -230 156 -165 216 hvcurveto
          hintmask 0110110110000000
          33 36 4 6 34 hvcurveto
          525 hlineto
          -32 callsubr
          hintmask 1011010110000000
          -22 -65 -22 -64 -40 -65 rrcurveto
          -282 346 14 callgsubr
          304 hlineto
          -270 -695 rmoveto
          -153 -89 128 223 222 88 127 155 66 58 -24 -41 40 hvcurveto
          -574 vlineto
          -39 -40 -61 -22 -64 hhcurveto
          endchar
        </CharString>
        <CharString name="Oacute">
          -17 callgsubr
          -45 225 19 callgsubr
          hintmask 11011000
          -105 callsubr
          140 430 -80 callsubr
          hintmask 10111000
          -90 callgsubr
        </CharString>
        <CharString name="Obreve">
          -17 callgsubr
          50 74 -74 129 19 callgsubr
          hintmask 11011100
          -105 callsubr
          101 573 -56 callsubr
          hintmask 11101100
          23 callsubr
          hintmask 11011100
          3 callgsubr
        </CharString>
        <CharString name="Ocircumflex">
          -17 callgsubr
          -45 225 19 callgsubr
          hintmask 11011000
          -105 callsubr
          hintmask 10111000
          243 574 -99 callsubr
        </CharString>
        <CharString name="Odieresis">
          -17 callgsubr
          50 110 hstem
          55 126 95 25 callgsubr
          82 126 vstem
          -105 callsubr
          95 499 -102 callgsubr
        </CharString>
        <CharString name="Odotbelow">
          169 -3 callgsubr
          117 45 700 45 hstem
          55 126 174 129 171 126 vstem
          -105 callsubr
          174 -578 -103 callgsubr
          endchar
        </CharString>
        <CharString name="Ograve">
          -17 callgsubr
          -45 225 19 callgsubr
          hintmask 11011000
          -105 callsubr
          348 451 rmoveto
          -144 107 rlineto
          hintmask 10111000
          -76 callgsubr
        </CharString>
        <CharString name="Ohungarumlaut">
          -17 callgsubr
          -45 225 19 callgsubr
          hintmask 11011000
          -105 callsubr
          121 430 rmoveto
          102 44 rlineto
          55 23 13 12 23 vvcurveto
          hintmask 10111000
          24 -17 18 -24 -19 -20 -12 -24 -22 vhcurveto
          -79 -87 rlineto
          185 -21 -57 callsubr
          endchar
        </CharString>
        <CharString name="Omacron">
          -17 callgsubr
          97 71 hstem
          19 callsubr
          vstem
          -105 callsubr
          390 491 -33 callgsubr
        </CharString>
        <CharString name="Oogonek">
          169 -256 55 192 44 700 45 hstem
          55 126 109 88 277 126 vstem
          487 -47 callgsubr
          38 39 20 45 42 51 hvcurveto
          196 11 145 166 217 vvcurveto
          225 -156 170 -207 -207 -156 -170 -225 -216 143 -165 194 -13 vhcurveto
          -64 -51 -38 -59 -49 -40 callsubr
          -321 588 rmoveto
          219 89 130 149 148 88 -129 -218 -221 -89 -132 -148 -148 -89 132 219 vhcurveto
          endchar
        </CharString>
        <CharString name="Oslash">
          170 -10 45 -14 -21 735 45 -10 -20 hstemhm
          56 24 callsubr
          hintmask 10011100
          7 callgsubr
          hintmask 01101100
          5 callgsubr
          hintmask 10101100
          -35 callsubr
          endchar
        </CharString>
        <CharString name="Oslashacute">
          170 -10 45 -14 -21 735 45 -45 225 -190 -20 hstemhm
          56 24 callsubr
          hintmask 10001110
          7 callgsubr
          hintmask 01100110
          5 callgsubr
          hintmask 10010110
          -35 callsubr
          -91 781 -80 callsubr
          -90 callgsubr
        </CharString>
        <CharString name="Otilde">
          -17 callgsubr
          62 80 -41 41 -41 76 3 -20 19 callgsubr
          hintmask 11010111
          -105 callsubr
          116 457 -81 callgsubr
        </CharString>
        <CharString name="P">
          -4 21 -21 330 39 361 40 84 callgsubr
          273 115 vstem
          49 747 rmoveto
          -87 callgsubr
          304 23 vlineto
          -114 19 rlineto
          288 36 callgsubr
          -311 hlineto
          190 -40 rmoveto
          5 callsubr
        </CharString>
        <CharString name="Q">
          169 -164 97 55 47 700 45 hstemhm
          55 126 25 84 -84 101 348 126 hintmask 11110110
          418 780 rmoveto
          -207 -156 -170 -225 -182 105 -152 156 -34 hvcurveto
          -4 vlineto
          -68 -26 -42 -44 -48 vvcurveto
          -33 20 -22 30 29 22 21 29 vhcurveto
          hintmask 11111010
          25 -17 5 23 vvcurveto
          25 19 20 43 vhcurveto
          118 35 -152 125 hhcurveto
          69 68 46 94 41 hvcurveto
          -27 10 rlineto
          -36 -27 -26 -17 -45 hhcurveto
          -83 -63 54 16 -68 hvcurveto
          4 vlineto
          186 15 126 164 199 vvcurveto
          225 -156 170 -207 vhcurveto
          -237 -394 rmoveto
          219 89 130 149 148 88 -129 -219 -220 -89 -132 -148 -148 -89 132 219 vhcurveto
          endchar
        </CharString>
        <CharString name="R">
          66 21 50 callsubr
          84 callgsubr
          263 115 vstem
          -100 callsubr
          endchar
        </CharString>
        <CharString name="Racute">
          66 21 50 callsubr
          190 -20 84 callgsubr
          263 115 vstem
          -100 callsubr
          -68 427 -80 callsubr
          -90 callgsubr
        </CharString>
        <CharString name="Rcaron">
          66 21 50 callsubr
          0 60 80 callgsubr
          263 115 hintmask 11101110
          -100 callsubr
          hintmask 11011110
          23 441 -95 callgsubr
        </CharString>
        <CharString name="Rcommaaccent">
          66 -225 -21 267 50 callsubr
          -15 callgsubr
          149 66 callsubr
          4 115 hintmask 11111101
          -100 callsubr
          106 -635 rmoveto
          -82 callgsubr
          hintmask 11111011
          -74 callgsubr
        </CharString>
        <CharString name="Rdotbelow">
          66 -256 129 148 50 callsubr
          84 callgsubr
          131 129 3 115 vstem
          -100 callsubr
          66 -581 -103 callgsubr
          endchar
        </CharString>
        <CharString name="S">
          -68 -9 43 -2 callsubr
          263 62 -62 92 hintmask 10110101
          64 callsubr
          -85 callsubr
          hintmask 01110110
          -20 callsubr
          hintmask 10110101
          -83 callsubr
          hintmask 10101110
          -20 callgsubr
          hintmask 10110110
          23 callgsubr
          endchar
        </CharString>
        <CharString name="Sacute">
          -75 callsubr
          -94 36 -80 callsubr
          hintmask 1010101100000000
          -90 callgsubr
        </CharString>
        <CharString name="Scaron">
          28 callsubr
          -10 -20 30 50 140 48 callgsubr
          hintmask 1011001101000000
          64 callsubr
          -85 callsubr
          hintmask 0111001110000000
          -20 callsubr
          hintmask 1011001101000000
          -83 callsubr
          hintmask 1010111110000000
          -20 callgsubr
          hintmask 1011001110000000
          23 callgsubr
          hintmask 1010111110000000
          14 50 -95 callgsubr
        </CharString>
        <CharString name="Schwa">
          105 -10 45 242 47 372 85 hstem
          47 131 412 126 vstem
          47 315 rmoveto
          -213 4 103 -112 186 hhcurveto
          226 150 165 242 229 -135 155 -200 -140 -125 -76 -112 -45 hvcurveto
          -8 -20 24 -15 17 22 rlineto
          74 57 75 42 99 hhcurveto
          166 89 -119 -212 hvcurveto
          -22 -1 -5 -14 vvcurveto
          -532 hlineto
          293 -289 rmoveto
          -112 -60 58 125 16 1 21 3 15 hvcurveto
          404 14 rlineto
          -165 -20 -81 -84 -135 hhcurveto
          endchar
        </CharString>
        <CharString name="Scircumflex">
          -75 callsubr
          hintmask 1010101100000000
          6 180 -99 callsubr
        </CharString>
        <CharString name="Sdotbelow">
          -68 -3 callgsubr
          118 43 -2 callsubr
          60 129 74 62 -62 92 hintmask 1101101101000000
          64 callsubr
          -85 callsubr
          hintmask 1011101110000000
          -20 callsubr
          hintmask 1101101101000000
          -83 callsubr
          hintmask 1101011110000000
          -20 callgsubr
          hintmask 1101101110000000
          23 callgsubr
          -58 -972 -103 callgsubr
          endchar
        </CharString>
        <CharString name="T">
          87 21 90 callgsubr
          200 40 hstem
          326 105 vstem
          216 hmoveto
          324 23 hlineto
          -88 callgsubr
          endchar
        </CharString>
        <CharString name="Tbar">
          87 21 -21 377 65 108 -20 200 40 hstem
          326 105 vstem
          216 hmoveto
          324 23 hlineto
          -109 19 rlineto
          335 160 65 -160 288 198 vlineto
          43 -57 29 -66 20 -57 rrcurveto
          24 hlineto
          -37 220 rlineto
          -662 hlineto
          -37 -220 rlineto
          24 hlineto
          20 57 29 66 43 57 rrcurveto
          201 -288 -160 -65 160 -335 hlineto
          -110 -19 rlineto
          endchar
        </CharString>
        <CharString name="Tcaron">
          87 21 90 callgsubr
          200 40 0 50 140 -20 hstemhm
          326 105 hintmask 11101100
          216 hmoveto
          324 23 hlineto
          -88 callgsubr
          hintmask 11011100
          162 797 -95 callgsubr
        </CharString>
        <CharString name="Tdotbelow">
          87 -258 129 150 -21 38 callsubr
          -105 118 hintmask 11111000
          216 hmoveto
          324 23 hlineto
          -88 callgsubr
          99 -217 rmoveto
          -35 25 -29 39 vhcurveto
          hintmask 11110100
          40 25 29 35 37 -25 28 -40 -39 -25 -28 -37 hvcurveto
          endchar
        </CharString>
        <CharString name="Thorn">
          -2 0 206 -39 39 361 40 -40 203 -15 callgsubr
          273 115 hintmask 10011100
          353 84 callsubr
          -304 -23 vlineto
          -87 callgsubr
          304 23 vlineto
          -114 19 rlineto
          hintmask 01101100
          125 36 callgsubr
          -121 121 hlineto
          -161 vmoveto
          5 callsubr
        </CharString>
        <CharString name="U">
          0 callsubr
          hstem
          123 105 382 40 vstem
          -106 callgsubr
          endchar
        </CharString>
        <CharString name="Uacute">
          0 callsubr
          210 -20 hstem
          123 105 382 40 vstem
          -106 callgsubr
          98 589 -80 callsubr
          -90 callgsubr
        </CharString>
        <CharString name="Ubreve">
          0 callsubr
          80 82 callgsubr
          123 105 382 40 hintmask 11011100
          -106 callgsubr
          61 732 -56 callsubr
          hintmask 11101100
          23 callsubr
          hintmask 11011100
          3 callgsubr
        </CharString>
        <CharString name="Ucircumflex">
          0 callsubr
          210 -20 hstem
          123 105 382 40 vstem
          -106 callgsubr
          198 733 -99 callsubr
        </CharString>
        <CharString name="Udieresis">
          0 callsubr
          80 110 hstem
          123 105 50 25 callgsubr
          35 40 vstem
          -106 callgsubr
          50 658 -102 callgsubr
        </CharString>
        <CharString name="Udotbelow">
          107 -3 callgsubr
          117 65 callsubr
          hstem
          123 105 109 129 144 40 vstem
          -106 callgsubr
          109 -419 -103 callgsubr
          endchar
        </CharString>
        <CharString name="Ugrave">
          0 callsubr
          210 -20 hstem
          123 105 382 40 vstem
          -106 callgsubr
          310 610 rmoveto
          -144 107 rlineto
          -76 callgsubr
        </CharString>
        <CharString name="Uhungarumlaut">
          0 callsubr
          210 -20 hstem
          123 105 382 40 vstem
          -106 callgsubr
          83 589 -26 callgsubr
        </CharString>
        <CharString name="Umacron">
          0 callsubr
          127 71 hstem
          123 105 382 40 vstem
          -106 callgsubr
          343 650 -33 callgsubr
        </CharString>
        <CharString name="Uogonek">
          107 -256 55 191 65 callsubr
          hstem
          123 105 56 88 238 40 vstem
          481 -47 callgsubr
          38 39 20 46 42 51 hvcurveto
          81 8 63 31 34 49 rrcurveto
          26 39 12 55 84 vvcurveto
          470 vlineto
          90 19 rlineto
          23 -219 -23 vlineto
          89 -19 rlineto
          -428 vlineto
          -106 -11 -61 -27 -36 vhcurveto
          -41 -30 -56 -21 -72 hhcurveto
          -113 -73 65 127 hvcurveto
          501 vlineto
          -97 callgsubr
          -486 vlineto
          -83 13 -42 26 -35 vhcurveto
          43 -57 80 -33 100 -2 rrcurveto
          -64 -51 -37 -58 -49 -40 callsubr
          endchar
        </CharString>
        <CharString name="Uring">
          0 callsubr
          80 35 70 35 hstem
          123 105 129 35 70 35 113 40 vstem
          -106 callgsubr
          199 603 -51 callsubr
        </CharString>
        <CharString name="Utilde">
          0 callsubr
          92 -49 callsubr
          123 105 382 40 hintmask 11010111
          -106 callgsubr
          83 616 -81 callgsubr
        </CharString>
        <CharString name="V">
          54 11 -21 757 23 hstem
          372 -10 rmoveto
          229 646 25 71 14 24 106 16 rlinecurve
          23 -281 -23 vlineto
          76 -10 26 -18 -34 vvcurveto
          -13 -4 -16 -6 -18 vhcurveto
          -158 -455 rlineto
          -5 hlineto
          -169 487 rlineto
          -6 18 -7 18 10 vvcurveto
          22 15 4 90 5 vhcurveto
          23 -325 -23 vlineto
          70 -5 15 -10 17 -46 261 -696 rcurveline
          endchar
        </CharString>
        <CharString name="W">
          30 callsubr
          hstem
          -102 callsubr
          endchar
        </CharString>
        <CharString name="Wacute">
          30 callsubr
          -23 213 hstemhm
          hintmask 11000000
          -102 callsubr
          87 826 -80 callsubr
          hintmask 10100000
          -90 callgsubr
        </CharString>
        <CharString name="Wcircumflex">
          30 callsubr
          -23 213 hstemhm
          hintmask 11000000
          -102 callsubr
          hintmask 10100000
          183 970 -99 callsubr
        </CharString>
        <CharString name="Wdieresis">
          30 callsubr
          60 110 hstem
          207 177 110 77 vstem
          -102 callsubr
          34 895 -102 callgsubr
        </CharString>
        <CharString name="Wgrave">
          30 callsubr
          -23 213 hstemhm
          hintmask 11000000
          -102 callsubr
          307 847 rmoveto
          -144 107 rlineto
          hintmask 10100000
          -76 callgsubr
        </CharString>
        <CharString name="X">
          120 0 22 725 23 hstem
          -10 hmoveto
          271 20 hlineto
          -58 6 -26 10 17 vvcurveto
          9 5 14 12 16 vhcurveto
          184 247 173 -263 rlineto
          12 -18 4 -9 -7 vvcurveto
          -11 -15 -4 -63 -5 vhcurveto
          -22 300 22 vlineto
          -62 5 -26 8 -20 30 -233 356 rcurveline
          191 257 38 45 27 11 72 13 rlinecurve
          23 -248 -23 vlineto
          52 -6 22 -12 -18 vvcurveto
          -11 -6 -11 -10 -14 vhcurveto
          -161 -219 -155 237 rlineto
          -10 16 -3 9 9 vvcurveto
          11 10 6 59 3 vhcurveto
          23 -302 -23 vlineto
          79 -9 19 -8 17 -26 214 -327 rcurveline
          -212 -286 -34 -46 -40 -15 -77 -10 rlinecurve
          endchar
        </CharString>
        <CharString name="Y">
          35 callsubr
          hstem
          210 hmoveto
          284 23 hlineto
          -89 19 rlineto
          267 vlineto
          176 327 36 66 3 29 106 16 rlinecurve
          23 -282 -23 vlineto
          69 -5 35 -24 -37 vvcurveto
          -13 -4 -14 -8 -16 vhcurveto
          -139 -263 rlineto
          -4 hlineto
          -165 295 rlineto
          -8 15 -5 14 11 vvcurveto
          20 18 12 87 5 vhcurveto
          23 -328 -23 vlineto
          70 -5 11 -14 24 -42 203 -359 rcurveline
          -285 vlineto
          -15 callsubr
          endchar
        </CharString>
        <CharString name="Yacute">
          35 callsubr
          -23 213 hstemhm
          hintmask 11000000
          210 hmoveto
          284 23 hlineto
          -89 19 rlineto
          267 vlineto
          176 327 36 66 3 29 106 16 rlinecurve
          23 -282 -23 vlineto
          69 -5 35 -24 -37 vvcurveto
          -13 -4 -14 -8 -16 vhcurveto
          -139 -263 rlineto
          -4 hlineto
          -165 295 rlineto
          -8 15 -5 14 11 vvcurveto
          20 18 12 87 5 vhcurveto
          23 -328 -23 vlineto
          70 -5 11 -14 24 -42 203 -359 rcurveline
          -285 vlineto
          -15 callsubr
          89 793 -80 callsubr
          hintmask 10100000
          -90 callgsubr
        </CharString>
        <CharString name="Ycircumflex">
          35 callsubr
          190 -20 hstem
          210 hmoveto
          284 23 hlineto
          -89 19 rlineto
          267 vlineto
          176 327 36 66 3 29 106 16 rlinecurve
          23 -282 -23 vlineto
          69 -5 35 -24 -37 vvcurveto
          -13 -4 -14 -8 -16 vhcurveto
          -139 -263 rlineto
          -4 hlineto
          -165 295 rlineto
          -8 15 -5 14 11 vvcurveto
          20 18 12 87 5 vhcurveto
          23 -328 -23 vlineto
          70 -5 11 -14 24 -42 203 -359 rcurveline
          -285 vlineto
          -15 callsubr
          181 937 -99 callsubr
        </CharString>
        <CharString name="Ydieresis">
          35 callsubr
          60 110 hstem
          354 77 vstem
          210 hmoveto
          284 23 hlineto
          -89 19 rlineto
          267 vlineto
          176 327 36 66 3 29 106 16 rlinecurve
          23 -282 -23 vlineto
          69 -5 35 -24 -37 vvcurveto
          -13 -4 -14 -8 -16 vhcurveto
          -139 -263 rlineto
          -4 hlineto
          -165 295 rlineto
          -8 15 -5 14 11 vvcurveto
          20 18 12 87 5 vhcurveto
          23 -328 -23 vlineto
          70 -5 11 -14 24 -42 203 -359 rcurveline
          -285 vlineto
          -15 callsubr
          34 862 -102 callgsubr
        </CharString>
        <CharString name="Ygrave">
          35 callsubr
          -23 213 hstemhm
          hintmask 11000000
          210 hmoveto
          284 23 hlineto
          -89 19 rlineto
          267 vlineto
          176 327 36 66 3 29 106 16 rlinecurve
          23 -282 -23 vlineto
          69 -5 35 -24 -37 vvcurveto
          -13 -4 -14 -8 -16 vhcurveto
          -139 -263 rlineto
          -4 hlineto
          -165 295 rlineto
          -8 15 -5 14 11 vvcurveto
          20 18 12 87 5 vhcurveto
          23 -328 -23 vlineto
          70 -5 11 -14 24 -42 203 -359 rcurveline
          -285 vlineto
          -15 callsubr
          293 814 rmoveto
          -144 107 rlineto
          hintmask 10100000
          -76 callgsubr
        </CharString>
        <CharString name="Ytilde">
          35 callsubr
          72 -49 callsubr
          hintmask 11010100
          210 hmoveto
          284 23 hlineto
          -89 19 rlineto
          267 vlineto
          176 327 36 66 3 29 106 16 rlinecurve
          23 -282 -23 vlineto
          69 -5 35 -24 -37 vvcurveto
          -13 -4 -14 -8 -16 vhcurveto
          -139 -263 rlineto
          -4 hlineto
          -165 295 rlineto
          -8 15 -5 14 11 vvcurveto
          20 18 12 87 5 vhcurveto
          23 -328 -23 vlineto
          70 -5 11 -14 24 -42 203 -359 rcurveline
          -285 vlineto
          -15 callsubr
          52 820 -50 callgsubr
          hintmask 11100100
          -93 callsubr
          hintmask 11001000
          -77 callsubr
        </CharString>
        <CharString name="Z">
          69 callsubr
          hstem
          103 770 -98 callsubr
          endchar
        </CharString>
        <CharString name="Zacute">
          69 callsubr
          -40 230 hstemhm
          hintmask 11000000
          103 770 -98 callsubr
          -366 46 -80 callsubr
          hintmask 10100000
          -90 callgsubr
        </CharString>
        <CharString name="Zcaron">
          69 callsubr
          0 60 140 -20 hstemhm
          hintmask 11010000
          103 770 -98 callsubr
          hintmask 10110000
          -262 60 -95 callgsubr
        </CharString>
        <CharString name="Zdotaccent">
          69 callsubr
          60 129 hstem
          304 129 vstem
          103 770 -98 callsubr
          -319 124 -103 callgsubr
          endchar
        </CharString>
        <CharString name="Zdotbelow">
          9 -3 callgsubr
          127 40 690 40 hstem
          254 129 vstem
          103 770 -98 callsubr
          -369 -962 -103 callgsubr
          endchar
        </CharString>
        <CharString name="a">
          -23 callgsubr
          18 callgsubr
          hintmask 11011000
          -107 callsubr
          44 59 rmoveto
          hintmask 11101000
          -88 callsubr
          endchar
        </CharString>
        <CharString name="aacute">
          -23 callgsubr
          319 -20 hstem
          49 89 185 95 vstem
          -107 callsubr
          44 59 rmoveto
          -88 callsubr
          20 582 -101 callsubr
          endchar
        </CharString>
        <CharString name="abreve">
          -23 callgsubr
          111 74 -74 139 18 callgsubr
          hintmask 11100110
          -107 callsubr
          44 59 rmoveto
          hintmask 11011010
          -88 callsubr
          -76 741 -56 callgsubr
          hintmask 11101010
          24 callgsubr
          hintmask 11011010
          2 callsubr
        </CharString>
        <CharString name="acircumflex">
          -23 callgsubr
          317 -20 18 callgsubr
          hintmask 11101100
          -107 callsubr
          44 59 rmoveto
          hintmask 11110100
          -88 callsubr
          68 808 rmoveto
          -99 callgsubr
        </CharString>
        <CharString name="acute">
          -497 78 callsubr
          31 631 -101 callsubr
          endchar
        </CharString>
        <CharString name="acute.cap">
          -416 79 callgsubr
          21 816 -80 callsubr
          -90 callgsubr
        </CharString>
        <CharString name="adieresis">
          -23 callgsubr
          130 110 31 callsubr
          -36 110 77 115 -95 95 hintmask 11101010
          169 -10 rmoveto
          58 59 35 57 39 hvcurveto
          3 -2 rlineto
          -61 7 29 -29 53 hhcurveto
          43 30 19 48 31 hvcurveto
          -17 15 rlineto
          -21 -17 -13 -8 -19 hhcurveto
          -29 -8 18 66 hvcurveto
          229 vlineto
          84 -2 24 -11 23 vhcurveto
          34 -17 -42 19 -57 hhcurveto
          -43 -45 -11 -20 -39 hvcurveto
          -65 -33 -43 -51 -44 vvcurveto
          -29 19 -19 27 30 22 24 34 vhcurveto
          11 -2 13 11 vvcurveto
          47 36 29 57 vhcurveto
          hintmask 11110001
          54 callgsubr
          hvcurveto
          -98 vlineto
          -201 -43 -73 -47 -87 vvcurveto
          -72 49 -50 71 vhcurveto
          44 59 rmoveto
          -88 callsubr
          hintmask 11100110
          -97 676 -102 callgsubr
        </CharString>
        <CharString name="ae">
          169 -10 59 259 32 162 38 12 callgsubr
          100 267 105 hintmask 11101110
          -80 callgsubr
          hintmask 11110110
          16 callsubr
          endchar
        </CharString>
        <CharString name="aeacute">
          169 -10 59 -59 73 245 32 162 38 319 -20 hstem
          49 89 185 100 267 105 vstem
          -80 callgsubr
          16 callsubr
          181 582 -101 callsubr
          endchar
        </CharString>
        <CharString name="agrave">
          -23 callgsubr
          319 -20 18 callgsubr
          hintmask 11101100
          -107 callsubr
          44 59 rmoveto
          hintmask 11110100
          -88 callsubr
          127 593 -86 callgsubr
        </CharString>
        <CharString name="amacron">
          -23 callgsubr
          169 71 18 callgsubr
          hintmask 11101100
          -107 callsubr
          44 59 rmoveto
          hintmask 11110100
          -88 callsubr
          202 660 -33 callgsubr
        </CharString>
        <CharString name="ampersand">
          145 -10 57 -26 -21 744 36 hstemhm
          90 104 8 70 0 189 0 68 hintmask 10111010
          277 431 rmoveto
          -137 -92 -50 -64 -95 vvcurveto
          -112 69 -78 148 71 88 17 87 81 vhcurveto
          hintmask 01111010
          76 -94 rlineto
          174 23 hlineto
          -86 28 -103 127 42 72 25 77 12 50 rlinecurve
          11 46 10 10 89 8 rrcurveto
          24 -255 -24 vlineto
          90 -10 7 -5 -34 vvcurveto
          -59 -21 -66 -34 -59 vhcurveto
          -204 252 rlineto
          109 78 40 66 58 vvcurveto
          75 -67 43 -77 -97 -86 -68 -105 -36 10 -58 65 -82 vhcurveto
          -83 -207 rmoveto
          57 18 58 86 65 vhcurveto
          224 -279 rlineto
          hintmask 10110100
          -63 -61 -64 -15 -46 hhcurveto
          -113 -44 87 90 hvcurveto
          267 413 rmoveto
          -56 -25 -42 -77 -54 vhcurveto
          -72 89 -15 40 38 vvcurveto
          63 42 29 50 57 40 -37 -70 vhcurveto
          endchar
        </CharString>
        <CharString name="aogonek">
          -141 -256 55 191 53 459 38 12 callgsubr
          80 -80 95 hintmask 11110100
          512 60 callgsubr
          49 24 39 33 39 hvcurveto
          61 71 -17 15 rlineto
          -21 -17 -13 -8 -19 hhcurveto
          hintmask 11101010
          -29 -8 18 66 hvcurveto
          229 vlineto
          84 -2 24 -11 23 vhcurveto
          34 -17 -42 19 -57 hhcurveto
          -43 -45 -11 -20 -39 hvcurveto
          -65 -33 -43 -51 -44 vvcurveto
          -29 19 -19 27 30 22 24 34 vhcurveto
          11 -2 13 11 vvcurveto
          47 36 29 57 54 callgsubr
          vhcurveto
          -98 vlineto
          -201 -43 -73 -47 -87 vvcurveto
          -72 49 -50 71 58 59 35 57 39 vhcurveto
          3 -2 7 -61 28 -28 53 -1 rlinecurve
          -65 46 callsubr
          -314 251 rmoveto
          hintmask 11110100
          -88 callsubr
          endchar
        </CharString>
        <CharString name="apostrophe">
          -532 661 -21 217 -20 hstemhm
          10 115 -56 56 hintmask 11100000
          37 640 rmoveto
          45 callsubr
          hintmask 11010000
          62 callsubr
        </CharString>
        <CharString name="aring">
          -23 callgsubr
          111 35 96 35 31 callsubr
          38 35 98 33 -33 95 hintmask 1111011010000000
          -107 callsubr
          44 59 rmoveto
          hintmask 1111101100000000
          -88 callsubr
          60 602 -51 callgsubr
        </CharString>
        <CharString name="aringacute">
          -23 callgsubr
          76 35 96 35 -35 196 hstemhm
          49 89 43 35 107 24 -24 95 hintmask 1110111010000000
          -107 callsubr
          95 626 rmoveto
          hintmask 1111011100000000
          47 36 36 47 47 -36 36 -52 hvcurveto
          46 57 rlineto
          22 27 8 17 17 vvcurveto
          hintmask 1110111100000000
          25 -18 18 -21 -29 -16 -18 -29 -10 vhcurveto
          -55 -167 rlineto
          -3 -9 -2 -11 -10 vvcurveto
          -47 33 -36 50 vhcurveto
          -51 -567 rmoveto
          -88 callsubr
          3 650 rmoveto
          29 19 19 29 29 19 -19 -29 -29 -19 -19 -29 -29 -19 19 29 vhcurveto
          endchar
        </CharString>
        <CharString name="asciicircum">
          -168 353 -21 379 -20 hstem
          90 332 rmoveto
          157 317 rlineto
          4 hlineto
          159 -317 rlineto
          42 hlineto
          -184 379 rlineto
          -36 hlineto
          -185 -379 rlineto
          endchar
        </CharString>
        <CharString name="asciitilde">
          -79 223 84 -31 83 hstemhm
          hintmask 10000000
          110 223 rmoveto
          hintmask 01000000
          31 9 14 22 45 hhcurveto
          hintmask 10000000
          73 70 -53 71 hhcurveto
          hintmask 01000000
          92 26 84 52 hvcurveto
          -30 hlineto
          hintmask 10000000
          -31 -9 -14 -21 -45 hhcurveto
          hintmask 01000000
          -74 -68 52 -72 hhcurveto
          hintmask 10000000
          -92 -26 -84 -52 hvcurveto
          endchar
        </CharString>
        <CharString name="asterisk">
          -186 453 -21 83 233 82 -20 hstemhm
          63 215 -75 75 -75 215 hintmask 11110000
          278 592 rmoveto
          -31 41 18 -46 40 hhcurveto
          hintmask 11100100
          24 17 15 24 46 -64 -9 -63 28 hvcurveto
          -29 13 31 13 rlineto
          58 24 67 -8 47 vvcurveto
          21 -13 19 -28 -38 -12 -38 -40 -50 vhcurveto
          -25 -20 3 32 rlineto
          hintmask 11101000
          4 48 18 21 1 33 rrcurveto
          32 -17 14 -20 -21 -17 -14 -32 -32 18 -24 5 -44 vhcurveto
          4 -34 -26 19 rlineto
          33 -45 -15 45 -40 hhcurveto
          hintmask 11110000
          -27 -14 -18 -22 -47 67 8 58 -24 hvcurveto
          31 -13 -29 -13 rlineto
          -59 -27 -68 8 -46 vvcurveto
          -23 16 -16 25 vhcurveto
          40 18 46 31 41 hvcurveto
          28 21 -4 -33 rlineto
          -5 -39 -18 -35 -29 vvcurveto
          -27 14 -17 24 24 13 17 23 26 -16 35 -6 45 vhcurveto
          -5 34 rlineto
          endchar
        </CharString>
        <CharString name="at">
          208 -143 39 135 50 -37 55 318 43 135 45 hstemhm
          57 56 109 87 168 78 206 50 hintmask 1101111110000000
          418 -143 rmoveto
          76 71 17 33 66 hvcurveto
          -11 29 rlineto
          -24 -40 -54 -16 -83 hhcurveto
          -269 -61 167 139 205 134 188 224 148 142 -83 -187 -140 -79 -104 -86 -24 -17 8 31 15 4 19 5 16 hvcurveto
          81 290 rlineto
          -80 hlineto
          -11 -39 rlineto
          -4 hlineto
          22 -14 -24 17 -40 hhcurveto
          -122 -128 -161 -136 hvcurveto
          hintmask 1011111110000000
          -69 33 -50 69 49 54 26 68 51 vhcurveto
          4 -1 rlineto
          -5 -5 0 -7 -12 vvcurveto
          hintmask 1101111110000000
          -45 37 -37 66 127 104 140 157 172 -126 140 -204 -228 -196 -175 -262 -248 176 -98 185 vhcurveto
          hintmask 1011111110000000
          -67 242 rmoveto
          -29 -13 19 47 124 92 128 76 33 11 -25 -34 -58 -24 -60 -23 -40 hvcurveto
          -62 -35 -46 -39 -42 hhcurveto
          endchar
        </CharString>
        <CharString name="atilde">
          -23 callgsubr
          142 80 -41 41 -41 76 3 -20 18 callgsubr
          hintmask 1110010110000000
          -107 callsubr
          44 59 rmoveto
          hintmask 1101011010000000
          -88 callsubr
          -78 634 -50 callgsubr
          hintmask 1110011010000000
          -93 callsubr
          hintmask 1100101010000000
          -77 callsubr
        </CharString>
        <CharString name="b">
          -65 -10 34 462 77 callsubr
          292 21 callgsubr
          358 -10 vlineto
          -159 40 callgsubr
          -27 rlineto
          -739 16 vlineto
          46 89 callsubr
          34 vmoveto
          -66 -43 50 76 hvcurveto
          284 vlineto
          -2 callgsubr
        </CharString>
        <CharString name="backslash">
          -303 79 callsubr
          317 -169 rmoveto
          -200 988 rlineto
          -70 hlineto
          201 -988 rlineto
          endchar
        </CharString>
        <CharString name="bar">
          -395 -149 -21 989 -20 hstem
          101 70 vstem
          171 78 callgsubr
        </CharString>
        <CharString name="bar.tnum">
          -149 -21 989 -20 hstem
          115 70 vstem
          185 78 callgsubr
        </CharString>
        <CharString name="braceleft">
          69 callgsubr
          99 86 -60 60 -60 85 hintmask 11110000
          292 -151 rmoveto
          -4 -13 -13 -2 -15 hhcurveto
          -46 -20 27 65 hvcurveto
          hintmask 11100100
          60 25 130 77 vvcurveto
          71 -21 35 -51 20 vhcurveto
          4 vlineto
          49 19 23 42 71 vvcurveto
          hintmask 11110000
          74 -25 106 55 vvcurveto
          58 23 37 43 11 8 -1 -4 22 vhcurveto
          6 26 rlineto
          8 -20 -20 5 -24 hhcurveto
          -86 -49 -45 -82 hvcurveto
          hintmask 11101000
          -60 26 -102 -76 vvcurveto
          -83 -27 -37 -69 vhcurveto
          -23 vlineto
          71 25 -35 -91 hvcurveto
          hintmask 11110000
          -88 -26 -104 -72 vvcurveto
          -88 39 -36 89 26 21 5 9 24 vhcurveto
          endchar
        </CharString>
        <CharString name="braceright">
          69 callgsubr
          117 85 -60 60 -60 86 hintmask 11100100
          29 -180 rmoveto
          -9 24 21 -5 26 hhcurveto
          89 39 36 88 hvcurveto
          hintmask 11110000
          72 -26 104 88 vvcurveto
          91 25 35 71 vhcurveto
          23 vlineto
          -69 -27 37 83 hvcurveto
          hintmask 11100100
          76 26 102 60 vvcurveto
          82 -49 45 -86 -24 -20 -5 -8 -20 vhcurveto
          6 -26 rlineto
          4 22 8 1 11 hhcurveto
          43 23 -37 -58 hvcurveto
          hintmask 11110000
          -55 -25 -106 -74 vvcurveto
          -71 23 -42 49 -19 vhcurveto
          -4 vlineto
          -51 -20 -21 -35 -71 vvcurveto
          hintmask 11101000
          -77 25 -130 -60 vvcurveto
          -65 -20 -27 -46 -15 -13 2 4 -13 vhcurveto
          endchar
        </CharString>
        <CharString name="bracketleft">
          -343 -187 31 944 32 hstemhm
          101 81 -81 199 hintmask 11010000
          300 -187 rmoveto
          31 vlineto
          hintmask 11100000
          -118 944 hlineto
          hintmask 11010000
          118 32 -199 -1007 hlineto
          endchar
        </CharString>
        <CharString name="bracketright">
          -343 -187 31 944 32 hstemhm
          24 199 -81 81 hintmask 11100000
          223 -187 rmoveto
          1007 -199 -32 vlineto
          hintmask 11010000
          118 -944 hlineto
          hintmask 11100000
          -118 -31 hlineto
          endchar
        </CharString>
        <CharString name="breve">
          -363 651 74 -74 139 hstemhm
          hintmask 01000000
          10 790 -56 callgsubr
          hintmask 10000000
          24 callgsubr
          hintmask 01000000
          2 callsubr
        </CharString>
        <CharString name="breve.cap">
          -363 830 82 callgsubr
          hintmask 01000000
          10 959 -56 callsubr
          hintmask 10000000
          23 callsubr
          hintmask 01000000
          3 callgsubr
        </CharString>
        <CharString name="brokenbar">
          -392 -150 -21 990 -20 hstem
          104 67 vstem
          171 432 rmoveto
          387 -67 -387 vlineto
          67 -603 rmoveto
          387 -67 -387 vlineto
          endchar
        </CharString>
        <CharString name="bullet">
          -257 259 230 hstem
          85 240 vstem
          85 374 rmoveto
          -63 54 -52 66 66 54 52 63 63 -54 52 -66 -66 -54 -52 -63 vhcurveto
          endchar
        </CharString>
        <CharString name="c">
          0 callgsubr
          hstemhm
          46 102 hintmask 10110000
          -81 callsubr
          hintmask 11010000
          -67 callsubr
          endchar
        </CharString>
        <CharString name="c_t">
          228 -10 47 -47 73 432 45 -32 32 -10 -20 295 35 hstemhm
          46 102 140 65 288 95 -79 79 hintmask 0101011101000000
          290 -10 rmoveto
          97 75 50 88 34 hvcurveto
          5 13 -19 10 -11 -15 rlineto
          -47 -35 -54 -26 -63 hhcurveto
          -110 -61 79 141 140 61 85 101 37 13 -12 -48 17 hvcurveto
          -53 18 8 -10 27 hhcurveto
          32 20 19 32 36 -28 27 -40 22 hvcurveto
          -45 25 -16 40 55 vvcurveto
          101 62 63 97 93 52 -58 -102 -76 -28 -45 -55 -13 vhcurveto
          hintmask 1010011110000000
          -5 callsubr
          hintmask 1000111110000000
          8 35 rlineto
          -143 hlineto
          4 28 2 27 24 vvcurveto
          148 -79 83 -141 -136 -98 -77 -107 -46 19 -43 38 -25 vhcurveto
          -4 vlineto
          hintmask 0110011110000000
          1 -6 -15 1 -11 hhcurveto
          -157 -110 -116 -166 -158 101 -110 143 hvcurveto
          endchar
        </CharString>
        <CharString name="cacute">
          0 callgsubr
          319 -20 hstemhm
          46 102 hintmask 10111000
          -81 callsubr
          hintmask 11011000
          -67 callsubr
          19 641 -101 callsubr
          endchar
        </CharString>
        <CharString name="caron">
          -391 651 -21 229 -20 hstem
          138 630 -92 callgsubr
        </CharString>
        <CharString name="caron.alt">
          -560 663 -21 215 -20 hstem
          13 84 vstem
          36 642 -50 callsubr
        </CharString>
        <CharString name="caron.cap">
          73 callsubr
          820 -95 callgsubr
        </CharString>
        <CharString name="ccaron">
          0 callgsubr
          0 90 229 -20 hstemhm
          46 102 hintmask 10101100
          -81 callsubr
          hintmask 11001100
          -67 callsubr
          hintmask 10011100
          31 640 -92 callgsubr
        </CharString>
        <CharString name="ccedilla">
          -132 65 callgsubr
          49 72 302 175 -32 32 hstemhm
          46 102 182 75 hintmask 11101110
          195 -53 callsubr
          19 49 88 6 67 49 32 82 rlinecurve
          5 13 -19 10 -11 -15 rlineto
          -49 -36 -55 -24 -60 hhcurveto
          -109 -63 79 136 140 61 90 106 45 19 -14 -66 8 hvcurveto
          hintmask 11110110
          -43 5 19 -20 35 hhcurveto
          29 17 23 34 64 -78 54 -102 -156 -110 -117 -165 -151 92 -107 133 -9 hvcurveto
          -49 -115 -73 callgsubr
          endchar
        </CharString>
        <CharString name="ccircumflex">
          0 callgsubr
          317 -20 hstemhm
          46 102 hintmask 10111000
          -81 callsubr
          hintmask 11011000
          -67 callsubr
          35 867 rmoveto
          -99 callgsubr
        </CharString>
        <CharString name="cdotaccent">
          0 callgsubr
          111 129 hstemhm
          46 102 110 129 hintmask 10111100
          -81 callsubr
          hintmask 11011100
          -67 callsubr
          -32 725 -103 callgsubr
          endchar
        </CharString>
        <CharString name="cedilla">
          -437 65 callgsubr
          75 -20 hstem
          145 75 vstem
          10 -53 callsubr
          29 75 rlineto
          -37 hlineto
          -60 -141 -73 callgsubr
          endchar
        </CharString>
        <CharString name="cent">
          -113 73 callgsubr
          52 102 128 42 -42 226 hintmask 11111000
          324 -64 callsubr
        </CharString>
        <CharString name="cent.tnum">
          -67 73 callgsubr
          72 102 128 42 -42 226 hintmask 11111000
          344 -64 callsubr
        </CharString>
        <CharString name="circumflex">
          -391 649 -21 229 -20 hstem
          140 857 rmoveto
          -99 callgsubr
        </CharString>
        <CharString name="circumflex.cap">
          73 callsubr
          960 -99 callsubr
        </CharString>
        <CharString name="colon">
          -383 -10 138 205 138 hstem
          73 138 vstem
          73 25 callsubr
          -343 vmoveto
          -96 callgsubr
          endchar
        </CharString>
        <CharString name="colon.tnum">
          -10 138 205 138 hstem
          81 138 vstem
          81 25 callsubr
          -343 vmoveto
          -96 callgsubr
          endchar
        </CharString>
        <CharString name="comma">
          -404 -130 39 callsubr
          62 71 callgsubr
          hintmask 11100000
          95 -151 -63 callsubr
          hintmask 11010000
          -39 callgsubr
          endchar
        </CharString>
        <CharString name="comma.tnum">
          -130 39 callsubr
          81 71 callgsubr
          hintmask 11100000
          114 -151 -63 callsubr
          hintmask 11010000
          -39 callgsubr
          endchar
        </CharString>
        <CharString name="commaaccent">
          -537 -235 -21 202 -20 hstemhm
          10 66 callsubr
          hintmask 11100000
          32 -256 rmoveto
          -82 callgsubr
          hintmask 11010000
          -74 callgsubr
        </CharString>
        <CharString name="copyright">
          235 -10 45 126 34 387 35 118 45 hstem
          54 52 124 95 470 53 vstem
          54 385 rmoveto
          -217 178 -178 219 219 178 178 217 217 -178 178 -219 -219 -178 -178 -217 vhcurveto
          52 hmoveto
          191 152 159 193 193 151 -159 -191 -191 -151 -159 -193 -193 -152 159 191 vhcurveto
          124 hmoveto
          -132 90 -92 127 51 36 15 32 39 vhcurveto
          26 -46 rlineto
          14 161 -20 hlineto
          -6 -31 -11 -25 -13 -19 rrcurveto
          -36 -25 -34 -17 -42 hhcurveto
          -87 -50 71 125 122 47 69 92 47 33 -18 -42 25 hvcurveto
          9 -15 6 -13 7 -22 rrcurveto
          22 143 -14 hlineto
          -24 -38 rlineto
          -4 hlineto
          26 -35 -41 14 -47 hhcurveto
          -125 -93 -97 -135 hvcurveto
          endchar
        </CharString>
        <CharString name="currency">
          -33 148 -21 25 64 302 64 25 -20 hstem
          102 70 290 70 vstem
          191 194 rmoveto
          -28 36 42 -14 48 hhcurveto
          49 42 14 28 35 hvcurveto
          66 -67 48 48 -66 66 rlineto
          27 37 14 43 47 vvcurveto
          48 -14 42 -28 35 vhcurveto
          67 66 -48 48 -65 -66 rlineto
          27 -38 -43 14 -46 hhcurveto
          -48 -44 -15 -27 -34 hvcurveto
          -66 67 -48 -48 67 -65 rlineto
          -28 -36 -14 -42 -48 vvcurveto
          -49 14 -44 28 -34 vhcurveto
          -67 -66 48 -48 rlineto
          192 89 rmoveto
          -79 -66 69 83 82 66 68 79 79 66 -68 -83 -83 -66 -68 -79 hvcurveto
          endchar
        </CharString>
        <CharString name="d">
          -60 -10 80 callsubr
          hstem
          47 105 266 94 vstem
          -94 callgsubr
          endchar
        </CharString>
        <CharString name="dagger">
          -181 -115 -21 684 91 -65 65 190 -20 hstemhm
          30 224 -56 56 -22 56 -56 224 hintmask 10110100
          254 -136 rmoveto
          8 224 12 117 27 106 -22 73 -13 82 -8 108 rrcurveto
          hintmask 11010001
          58 callgsubr
          -12 -5 -1 -19 -56 hvcurveto
          -31 -10 -30 -8 -10 -1 rrcurveto
          12 vlineto
          hintmask 11010010
          86 callsubr
          hintmask 11010100
          -27 -17 -19 -31 hvcurveto
          57 callgsubr
          18 -48 -7 2 -14 hhcurveto
          hintmask 11011000
          -31 -23 -18 -26 -27 23 -20 30 hvcurveto
          hintmask 10110100
          37 19 26 89 hhcurveto
          -11 -113 -12 -82 -20 -68 25 -105 12 -116 10 -226 rrcurveto
          endchar
        </CharString>
        <CharString name="daggerdbl">
          -137 -116 -21 190 65 -65 91 404 91 -65 65 190 -20 hstemhm
          52 228 -60 60 -30 30 -30 60 -60 228 hintmask 1100111000000000
          323 346 rmoveto
          -22 63 -13 71 -8 94 rrcurveto
          hintmask 1101010000100000
          58 callgsubr
          -14 -6 -1 -19 -53 hvcurveto
          hintmask 1101011000000000
          -32 -11 -29 -7 -10 -1 rrcurveto
          12 vlineto
          hintmask 1101010001000000
          86 callsubr
          hintmask 1101010100000000
          -27 -17 -19 -31 hvcurveto
          hintmask 1101010010000000
          57 callgsubr
          19 -50 -7 1 -12 hhcurveto
          hintmask 1101011000000000
          -31 -23 -18 -26 -27 23 -20 30 hvcurveto
          hintmask 1100110010000000
          37 19 26 89 hhcurveto
          -11 -99 -12 -71 -20 -58 20 -58 12 -71 11 -99 rrcurveto
          hintmask 1011011000000000
          -89 -19 26 -37 hhcurveto
          -30 -23 -20 -27 -26 23 -18 31 14 7 2 18 48 hvcurveto
          hintmask 1101010010000000
          21 8 34 8 20 3 rrcurveto
          -12 vlineto
          hintmask 1101010100000000
          -67 -30 -60 -40 vvcurveto
          -31 17 -19 27 vhcurveto
          hintmask 1101010001000000
          29 17 19 31 hvcurveto
          hintmask 1011011000000000
          39 -30 62 66 vvcurveto
          12 vlineto
          17 -3 25 -6 29 -10 rrcurveto
          -17 50 12 -3 11 hhcurveto
          hintmask 1011010000100000
          32 22 19 26 26 -22 20 -30 hvcurveto
          hintmask 1101011000000000
          -38 -19 -26 -89 hhcurveto
          8 94 13 71 22 63 rrcurveto
          endchar
        </CharString>
        <CharString name="dcaron">
          -60 -10 80 callsubr
          47 -20 hstem
          47 105 266 94 66 84 vstem
          -94 callgsubr
          305 587 -50 callsubr
        </CharString>
        <CharString name="dcroat">
          -60 -10 65 455 30 69 65 156 -20 hstemhm
          47 105 273 87 -87 156 hintmask 11111100
          254 -10 rmoveto
          66 59 29 59 42 hvcurveto
          4 -2 rlineto
          -86 7 vlineto
          148 62 rlineto
          11 vlineto
          -68 15 rlineto
          531 vlineto
          hintmask 11111010
          69 65 hlineto
          hintmask 11111100
          -69 156 -10 hlineto
          -157 40 callgsubr
          -28 rlineto
          -66 -144 -65 144 -84 vlineto
          10 -35 -38 5 -35 hhcurveto
          -156 -107 -116 -168 -153 89 -113 118 hvcurveto
          -72 callgsubr
          endchar
        </CharString>
        <CharString name="ddotbelow">
          -60 -3 callgsubr
          117 80 callsubr
          hstem
          47 105 91 129 46 94 vstem
          -94 callgsubr
          -53 -247 -103 callgsubr
          endchar
        </CharString>
        <CharString name="degree">
          -327 587 41 162 40 hstem
          49 41 160 41 vstem
          170 -19 callsubr
        </CharString>
        <CharString name="degree.tnum">
          587 41 162 40 hstem
          29 41 160 41 vstem
          150 -19 callsubr
        </CharString>
        <CharString name="dieresis">
          -350 670 110 hstem
          10 25 callgsubr
          vstem
          10 725 -102 callgsubr
        </CharString>
        <CharString name="dieresis.cap">
          -350 857 110 hstem
          10 25 callgsubr
          vstem
          10 912 -102 callgsubr
        </CharString>
        <CharString name="divide">
          -142 102 138 75 49 81 138 hstem
          185 138 vstem
          185 513 -89 callgsubr
          -343 vmoveto
          -96 callgsubr
          282 145 15 callsubr
        </CharString>
        <CharString name="divide.tnum">
          -67 102 138 75 49 81 138 hstem
          223 138 vstem
          223 513 -89 callgsubr
          -343 vmoveto
          -96 callgsubr
          282 145 15 callsubr
        </CharString>
        <CharString name="dollar">
          -130 61 callgsubr
          61 105 91 42 95 92 vstem
          299 -45 callgsubr
          34 -11 15 -23 12 -43 rrcurveto
          -36 10 10 -32 40 hhcurveto
          34 -26 callsubr
        </CharString>
        <CharString name="dollar.tnum">
          -67 61 callgsubr
          92 105 91 42 95 92 vstem
          330 -45 callgsubr
          35 -11 16 -28 10 -38 rrcurveto
          -32 8 11 -36 42 hhcurveto
          33 -26 callsubr
        </CharString>
        <CharString name="dotaccent">
          -518 651 129 hstem
          10 129 vstem
          10 -9 callsubr
          endchar
        </CharString>
        <CharString name="dotaccent.cap">
          -518 830 129 hstem
          10 129 vstem
          10 894 -103 callgsubr
          endchar
        </CharString>
        <CharString name="dotbelow">
          -518 -3 callgsubr
          hstem
          10 129 vstem
          10 -192 -103 callgsubr
          endchar
        </CharString>
        <CharString name="dotlessi">
          40 callsubr
          hstem
          107 95 vstem
          202 35 -92 callsubr
          endchar
        </CharString>
        <CharString name="dotlessj">
          -387 -16 callgsubr
          658 -20 hstemhm
          99 95 hintmask 10110000
          99 -48 rmoveto
          -58 callgsubr
          hintmask 01110000
          30 -11 -16 16 -28 hhcurveto
          -33 -21 -23 -37 -51 42 -31 68 80 68 45 84 46 hvcurveto
          29 53 4 37 196 vvcurveto
          385 -9 vlineto
          -160 -48 rlineto
          -14 vlineto
          74 -27 rlineto
          endchar
        </CharString>
        <CharString name="e">
          -107 -10 87 callsubr
          267 105 vstem
          -107 callgsubr
          endchar
        </CharString>
        <CharString name="eacute">
          -39 callsubr
          319 -20 hstem
          47 100 267 105 vstem
          -107 callgsubr
          -39 122 -101 callsubr
          endchar
        </CharString>
        <CharString name="ebreve">
          -39 callsubr
          111 74 -74 139 hstemhm
          47 100 267 105 hintmask 11101110
          -107 callgsubr
          -121 281 -56 callgsubr
          hintmask 11110110
          24 callgsubr
          hintmask 11101110
          2 callsubr
        </CharString>
        <CharString name="ecaron">
          -39 callsubr
          0 90 229 -20 hstemhm
          47 100 267 105 hintmask 11101110
          -107 callgsubr
          hintmask 11011110
          12 121 -92 callgsubr
        </CharString>
        <CharString name="ecircumflex">
          -39 callsubr
          317 -20 hstem
          47 100 267 105 vstem
          -107 callgsubr
          16 348 rmoveto
          -99 callgsubr
        </CharString>
        <CharString name="edieresis">
          -39 callsubr
          130 110 hstemhm
          47 100 16 25 callgsubr
          -46 105 hintmask 11111101
          -107 callgsubr
          -142 216 rmoveto
          -30 22 -25 33 34 21 25 30 32 -21 23 -34 -33 -22 -23 -32 vhcurveto
          hintmask 11111110
          187 hmoveto
          -30 22 -25 33 34 21 25 30 32 -21 23 -34 -33 -22 -23 -32 vhcurveto
          endchar
        </CharString>
        <CharString name="edotaccent">
          -39 callsubr
          111 129 hstem
          47 100 108 129 30 105 vstem
          -107 callgsubr
          -50 206 -103 callgsubr
          endchar
        </CharString>
        <CharString name="edotbelow">
          -107 -3 callgsubr
          117 87 callsubr
          90 129 48 105 vstem
          -107 callgsubr
          -68 -701 -103 callgsubr
          endchar
        </CharString>
        <CharString name="egrave">
          -39 callsubr
          319 -20 hstem
          47 100 267 105 vstem
          -107 callgsubr
          47 133 -86 callgsubr
        </CharString>
        <CharString name="eight">
          -72 -10 45 700 45 hstemhm
          58 85 callgsubr
          375 -65 callsubr
        </CharString>
        <CharString name="eight.denominator">
          -273 -10 36 394 35 hstemhm
          47 9 callgsubr
          hintmask 11011000
          250 256 -61 callgsubr
          hintmask 11100100
          -83 callgsubr
          hintmask 11101000
          -31 callgsubr
          hintmask 11100100
          -13 callgsubr
        </CharString>
        <CharString name="eight.numerator">
          -273 314 36 394 35 hstemhm
          47 9 callgsubr
          hintmask 11011000
          250 580 -61 callgsubr
          hintmask 11100100
          -83 callgsubr
          hintmask 11101000
          -31 callgsubr
          hintmask 11100100
          -13 callgsubr
        </CharString>
        <CharString name="eight.oldstyle">
          -138 -10 45 678 45 hstemhm
          55 100 -81 94 201 88 -76 91 hintmask 11011000
          347 425 rmoveto
          71 42 39 60 68 vvcurveto
          95 -78 68 -107 -113 -85 -78 -105 -79 39 -61 92 -62 vhcurveto
          hintmask 11100100
          -102 -50 -48 -60 -79 vvcurveto
          -110 87 -84 115 122 93 93 124 82 -38 67 -87 69 vhcurveto
          -47 20 rmoveto
          hintmask 11011000
          -93 49 -39 48 65 vvcurveto
          64 39 42 59 63 40 -47 -72 -54 -23 -51 -46 -44 vhcurveto
          -53 -94 rmoveto
          hintmask 11100100
          92 -54 42 -58 -76 vvcurveto
          -80 -41 -48 -67 -73 -45 57 91 74 31 57 61 37 vhcurveto
          endchar
        </CharString>
        <CharString name="eight.tnum">
          -67 -10 45 700 45 hstemhm
          56 85 callgsubr
          373 -65 callsubr
        </CharString>
        <CharString name="eightinferior">
          -245 -161 40 438 39 hstemhm
          44 86 callgsubr
          270 135 -61 callsubr
        </CharString>
        <CharString name="eightsuperior">
          -244 409 40 438 39 hstemhm
          45 86 callgsubr
          271 705 -61 callsubr
        </CharString>
        <CharString name="ellipsis">
          155 -10 138 hstem
          62 138 142 138 142 138 cntrmask 01110000
          62 58 -89 callgsubr
          280 hmoveto
          -96 callgsubr
          280 hmoveto
          -96 callgsubr
          endchar
        </CharString>
        <CharString name="emacron">
          -39 callsubr
          169 71 hstem
          47 100 267 105 vstem
          -107 callgsubr
          151 200 -33 callgsubr
        </CharString>
        <CharString name="emdash">
          407 222 60 hstem
          997 222 rmoveto
          60 -920 -60 vlineto
          endchar
        </CharString>
        <CharString name="endash">
          86 221 61 hstem
          676 221 rmoveto
          61 -599 -61 vlineto
          endchar
        </CharString>
        <CharString name="eng">
          -71 10 callsubr
          485 55 hstemhm
          107 95 218 95 hintmask 10111100
          59 callgsubr
          40 25 -15 -31 13 hvcurveto
          9 -22 3 -32 -57 vvcurveto
          -376 vlineto
          -58 callgsubr
          hintmask 01111100
          30 -11 -16 16 -28 hhcurveto
          -33 -21 -23 -37 -51 42 -31 68 80 68 45 84 46 hvcurveto
          29 53 4 37 196 vvcurveto
          183 vlineto
          96 -2 25 -11 21 vhcurveto
          37 -19 -44 23 -53 4 callsubr
          endchar
        </CharString>
        <CharString name="eogonek">
          -107 -256 55 191 87 callsubr
          73 88 106 105 vstem
          417 60 callgsubr
          45 20 57 58 42 hvcurveto
          46 33 49 36 21 49 6 14 rcurveline
          -17 10 -12 -15 rlineto
          -42 -34 -61 -25 -65 hhcurveto
          -113 -59 77 145 hvcurveto
          23 365 vlineto
          72 callgsubr
          -159 -108 -115 -168 -159 97 -108 143 13 12 1 2 12 hvcurveto
          -65 -52 -39 -59 -51 vvcurveto
          -52 40 -35 62 43 35 17 37 32 vhcurveto
          -127 711 rmoveto
          72 37 -41 -83 -14 -1 -18 -2 -8 hvcurveto
          -262 -9 rlineto
          111 13 55 62 88 hhcurveto
          endchar
        </CharString>
        <CharString name="equal">
          -101 240 44 117 44 hstem
          488 26 callgsubr
        </CharString>
        <CharString name="equal.tnum">
          -67 240 44 117 44 hstem
          505 26 callgsubr
        </CharString>
        <CharString name="eth">
          -77 -10 45 372 57 316 -20 hstem
          48 119 262 112 vstem
          442 723 rmoveto
          -30 46 -104 -68 -45 32 -50 27 -54 20 rlinecurve
          -18 -35 38 -19 39 -27 36 -33 rlinecurve
          -99 -64 29 -46 110 71 63 -68 47 -80 11 -67 rlinecurve
          29 -26 -64 23 -55 hhcurveto
          -123 -99 -106 -131 -137 99 -100 137 152 105 118 171 144 -72 142 -116 101 hvcurveto
          -68 -631 rmoveto
          -72 -46 68 108 117 57 79 83 42 44 -21 -33 24 hvcurveto
          7 -30 5 -46 -34 vvcurveto
          -120 -61 -88 -83 vhcurveto
          endchar
        </CharString>
        <CharString name="etilde">
          -39 callsubr
          142 -49 callsubr
          47 100 267 105 hintmask 1110101110000000
          -107 callgsubr
          -138 174 -50 callgsubr
          hintmask 1111001110000000
          -93 callsubr
          hintmask 1110010110000000
          -77 callsubr
        </CharString>
        <CharString name="exclam">
          -366 -10 130 660 -20 hstemhm
          90 121 -76 31 hintmask 11010000
          166 230 rmoveto
          6 107 10 101 9 82 rrcurveto
          hintmask 11100000
          11 96 9 72 26 vvcurveto
          36 -17 30 -43 -39 -22 -30 -39 -25 9 -72 11 -98 vhcurveto
          hintmask 11010000
          9 -81 9 -99 7 -106 rrcurveto
          -49 -176 rmoveto
          -35 25 -29 39 41 25 29 35 38 -25 28 -41 -39 -25 -28 -38 vhcurveto
          endchar
        </CharString>
        <CharString name="exclamdown">
          -394 -229 -21 660 130 hstemhm
          76 121 -76 31 hintmask 11010000
          121 300 rmoveto
          -6 -107 -10 -101 -9 -82 rrcurveto
          hintmask 11100000
          -11 -96 -9 -72 -26 vvcurveto
          -36 17 -30 43 39 22 30 39 25 -9 72 -11 98 vhcurveto
          hintmask 11010000
          -9 81 -9 99 -7 106 rrcurveto
          49 176 rmoveto
          35 -25 29 -39 -41 -25 -29 -35 -38 25 -28 41 39 25 28 38 vhcurveto
          endchar
        </CharString>
        <CharString name="f">
          -316 82 callsubr
          166 134 -31 31 hstemhm
          111 95 hintmask 11011000
          23 498 rmoveto
          88 -464 hlineto
          -14 callsubr
          hintmask 11101000
          55 callsubr
          -84 -83 -49 -74 -27 hvcurveto
          -13 -35 -2 -46 -96 vvcurveto
          -76 hlineto
          endchar
        </CharString>
        <CharString name="f_b">
          272 76 callsubr
          286 34 hstemhm
          111 95 222 92 266 107 hintmask 1001011110000000
          76 callgsubr
          143 vlineto
          hintmask 0100111110000000
          12 32 rlineto
          -155 55 hlineto
          96 -47 callsubr
          56 hhcurveto
          52 42 -37 -50 hvcurveto
          -707 16 vlineto
          42 89 callsubr
          150 114 128 169 hvcurveto
          hintmask 1001011110000000
          150 -90 103 -131 -59 -51 -23 -45 -42 vhcurveto
          304 67 callsubr
          hintmask 1000111110000000
          33 callsubr
          hintmask 1001011110000000
          -41 callgsubr
          593 5 rmoveto
          -66 -43 50 76 hvcurveto
          284 vlineto
          hintmask 1010011110000000
          -2 callgsubr
        </CharString>
        <CharString name="f_f">
          11 82 callsubr
          166 134 -84 34 19 31 hstemhm
          70 callsubr
          hintmask 11011110
          23 498 rmoveto
          88 -464 hlineto
          -22 callsubr
          232 -464 vlineto
          -14 callsubr
          hintmask 11100110
          55 callsubr
          -67 -66 -31 -50 -38 hvcurveto
          hintmask 11011110
          19 -28 -44 12 -52 -37 callsubr
          171 hmoveto
          101 -16 callsubr
          24 38 20 39 hhcurveto
          52 51 -36 -61 13 hvcurveto
          -2 -29 -1 -38 -52 vvcurveto
          endchar
        </CharString>
        <CharString name="f_f_b">
          599 76 callsubr
          236 34 16 34 11 callsubr
          92 266 107 hintmask 0101011111100000
          956 21 callgsubr
          304 63 callsubr
          27 callsubr
          hintmask 1000111111100000
          22 callgsubr
          hintmask 1001011111100000
          -12 callsubr
          -496 16 vlineto
          42 34 rlineto
          5 hlineto
          hintmask 0100111111100000
          -30 40 48 -16 50 hhcurveto
          -750 540 rmoveto
          -22 callgsubr
          95 hmoveto
          55 vlineto
          27 callgsubr
          vlineto
          hintmask 1010011111100000
          201 -506 rmoveto
          -66 -43 50 76 hvcurveto
          284 vlineto
          -2 callgsubr
        </CharString>
        <CharString name="f_f_h">
          606 21 -21 485 45 -32 32 10 -20 226 34 16 34 11 callsubr
          92 234 95 hintmask 1010111111000000
          76 callgsubr
          232 -464 vlineto
          -22 callsubr
          133 vlineto
          12 32 rlineto
          -145 55 hlineto
          96 -47 callsubr
          56 hhcurveto
          54 40 -39 -52 hvcurveto
          -670 vlineto
          -52 callsubr
          243 53 callgsubr
          385 vlineto
          hintmask 1100111111000000
          -14 callgsubr
          hintmask 1001111111000000
          68 callgsubr
          319 vlineto
          31 -78 23 -90 27 callsubr
          hintmask 1100111111000000
          22 callgsubr
          hintmask 1010111111000000
          -41 callgsubr
          170 511 rmoveto
          -24 callgsubr
        </CharString>
        <CharString name="f_f_i">
          281 90 callsubr
          37 -5 -20 30 -20 161 149 -84 34 14 36 11 callsubr
          95 hintmask 1100100111000000
          23 498 rmoveto
          88 -464 hlineto
          -22 callsubr
          232 -464 vlineto
          2 callgsubr
          hintmask 1001100111000000
          505 -9 vlineto
          hintmask 1010011111000000
          -160 -10 -40 callgsubr
          hintmask 1100100111000000
          -13 callsubr
          -78 -73 -31 -52 -43 hvcurveto
          hintmask 1010011111000000
          20 -28 -45 13 -54 -37 callsubr
          hintmask 1100100111000000
          hintmask 1010100111000000
          171 hmoveto
          101 -23 callsubr
          hintmask 1010011111000000
          26 callsubr
        </CharString>
        <CharString name="f_f_j">
          269 10 callsubr
          498 32 151 149 -84 34 14 36 11 callsubr
          95 hintmask 1011100111000000
          76 callgsubr
          232 -464 vlineto
          -22 callsubr
          148 vlineto
          74 -12 rlineto
          -534 vlineto
          -58 callgsubr
          hintmask 0111011111000000
          30 -11 -16 16 -28 hhcurveto
          -33 -21 -23 -37 -51 42 -31 68 80 68 45 84 46 hvcurveto
          29 53 4 37 196 vvcurveto
          423 -9 vlineto
          -160 -48 -40 callgsubr
          hintmask 1011100111000000
          -13 callsubr
          -78 -73 -31 -52 -43 hvcurveto
          hintmask 1011011111000000
          3 callsubr
          170 511 rmoveto
          hintmask 1011100111000000
          101 -23 callsubr
          hintmask 1011011111000000
          26 callsubr
        </CharString>
        <CharString name="f_f_k">
          580 82 callsubr
          216 34 16 34 hstem
          18 callsubr
          92 vstem
          76 callgsubr
          232 -464 vlineto
          -22 callsubr
          133 vlineto
          12 32 rlineto
          -145 55 hlineto
          96 -47 callsubr
          56 hhcurveto
          52 42 -37 -50 hvcurveto
          -674 -77 callgsubr
          30 35 15 7 81 15 rlinecurve
          20 -224 -20 vlineto
          -37 callgsubr
          516 63 callsubr
          -86 -73 -32 -51 -41 vhcurveto
          3 callsubr
          170 511 rmoveto
          -24 callgsubr
        </CharString>
        <CharString name="f_f_l">
          278 82 callsubr
          216 34 16 34 hstem
          18 callsubr
          92 vstem
          76 callgsubr
          232 -464 vlineto
          -5 callgsubr
          -86 -73 -32 -51 -41 vhcurveto
          3 callsubr
          497 566 rmoveto
          96 -47 callsubr
          56 hhcurveto
          54 40 -39 -52 hvcurveto
          -175 -222 vlineto
          -327 hmoveto
          -24 callgsubr
        </CharString>
        <CharString name="f_f_t">
          342 0 37 -26 -21 508 32 166 134 -84 34 19 31 11 callsubr
          95 hintmask 0111001110000000
          866 75 callsubr
          hintmask 1010111110000000
          -34 callgsubr
          hintmask 1011001110000000
          -24 5 9 -27 35 hhcurveto
          hintmask 1010111110000000
          29 20 18 32 hvcurveto
          hintmask 1011001110000000
          50 -49 34 -74 -70 -67 -31 -51 -38 vhcurveto
          hintmask 1010111110000000
          20 -28 -45 12 -53 hhcurveto
          -107 -88 -48 -79 -31 87 callgsubr
          -12 callsubr
          -366 vlineto
          16 callgsubr
          hintmask 0110111110000000
          22 callsubr
          -660 540 rmoveto
          101 -23 callsubr
          46 24 30 19 46 hhcurveto
          63 42 -35 -62 12 hvcurveto
          -2 -26 -1 -37 -56 vvcurveto
          endchar
        </CharString>
        <CharString name="f_h">
          278 21 -21 485 45 -32 32 10 -20 276 34 hstemhm
          111 95 222 92 234 95 hintmask 10101111
          76 callgsubr
          133 vlineto
          12 32 rlineto
          -145 55 hlineto
          96 -47 callsubr
          56 hhcurveto
          54 40 -39 -52 hvcurveto
          -670 vlineto
          -52 callsubr
          243 53 callgsubr
          385 vlineto
          hintmask 11001111
          -14 callgsubr
          hintmask 10011111
          68 callgsubr
          319 67 callsubr
          hintmask 11001111
          33 callsubr
          hintmask 10101111
          -41 callgsubr
          endchar
        </CharString>
        <CharString name="f_i">
          -46 90 callsubr
          37 -5 -20 30 -20 161 149 -36 36 hstemhm
          111 95 222 95 hintmask 11001011
          23 498 rmoveto
          88 -464 hlineto
          2 callgsubr
          hintmask 10011011
          505 -9 vlineto
          hintmask 10100111
          -160 -10 -40 callgsubr
          hintmask 10101011
          -13 callsubr
          -98 -91 -49 -78 -31 hvcurveto
          -12 -30 -3 -46 -97 vvcurveto
          -76 hlineto
          endchar
        </CharString>
        <CharString name="f_j">
          -58 10 callsubr
          498 32 151 149 -36 36 hstemhm
          111 95 222 95 hintmask 10111011
          76 callgsubr
          148 vlineto
          74 -12 rlineto
          -534 vlineto
          -58 callgsubr
          hintmask 01110111
          30 -11 -16 16 -28 hhcurveto
          -33 -21 -23 -37 -51 42 -31 68 80 68 45 84 46 hvcurveto
          29 53 4 37 196 vvcurveto
          423 -9 vlineto
          -160 -48 -40 callgsubr
          hintmask 10111011
          -13 callsubr
          -98 -91 -49 -78 -31 hvcurveto
          -12 -30 -3 -46 -97 59 callsubr
          endchar
        </CharString>
        <CharString name="f_k">
          253 82 callsubr
          266 34 hstem
          111 95 222 92 vstem
          76 callgsubr
          133 vlineto
          12 32 rlineto
          -145 55 hlineto
          96 -47 callsubr
          56 hhcurveto
          54 40 -39 -52 hvcurveto
          -670 -77 callgsubr
          30 35 15 7 81 15 rlinecurve
          20 -224 -20 vlineto
          -37 callgsubr
          516 67 callsubr
          -12 -31 -3 -36 -106 59 callsubr
          endchar
        </CharString>
        <CharString name="f_l">
          -49 82 callsubr
          266 34 hstem
          111 95 222 92 vstem
          23 498 rmoveto
          88 -464 hlineto
          -5 callgsubr
          -17 callsubr
          vhcurveto
          33 callsubr
          171 55 rmoveto
          27 callgsubr
          -222 vlineto
          endchar
        </CharString>
        <CharString name="f_t">
          15 0 37 -26 -21 505 35 166 134 -31 31 hstemhm
          111 95 222 95 hintmask 01110110
          539 75 callsubr
          hintmask 10101110
          -34 callgsubr
          hintmask 10110110
          -24 5 9 -27 35 hhcurveto
          29 20 18 32 50 -49 34 -73 -97 -82 -60 -67 -23 hvcurveto
          -11 -31 -3 -46 -96 vvcurveto
          -76 hlineto
          -12 -32 rlineto
          88 -464 hlineto
          -22 callsubr
          222 -366 vlineto
          16 callgsubr
          hintmask 01110110
          22 callsubr
          endchar
        </CharString>
        <CharString name="five">
          -120 56 callgsubr
          400 94 hintmask 10111100
          182 -53 callgsubr
        </CharString>
        <CharString name="five.denominator">
          -310 -10 77 callgsubr
          242 70 hintmask 10111100
          126 361 -43 callsubr
          hintmask 01111100
          -29 callgsubr
        </CharString>
        <CharString name="five.numerator">
          -309 315 77 callgsubr
          243 70 hintmask 10111100
          127 686 -43 callsubr
          hintmask 01111100
          -29 callgsubr
        </CharString>
        <CharString name="five.oldstyle">
          -242 -211 45 -45 92 549 90 40 -20 hstemhm
          281 99 hintmask 10111000
          164 430 rmoveto
          174 hlineto
          37 123 -21 7 -26 -40 rlineto
          -191 hlineto
          -55 -317 rlineto
          131 -28 68 -76 -118 vvcurveto
          -89 -46 -58 -69 vhcurveto
          hintmask 01111000
          -59 -18 47 -36 hhcurveto
          -20 -13 -13 -18 -35 52 -26 69 140 99 104 145 131 -80 90 -157 46 hvcurveto
          endchar
        </CharString>
        <CharString name="five.tnum">
          -67 56 callgsubr
          441 94 hintmask 10111100
          223 -53 callgsubr
        </CharString>
        <CharString name="fiveeighths">
          192 -10 36 -5 -21 315 38 -38 120 -15 35 76 86 69 81 3 -20 46 -20 hstemhm
          247 70 196 9 callgsubr
          hintmask 0110110111011000
          223 hmoveto
          -69 callsubr
          562 256 -61 callgsubr
          hintmask 1010111011100100
          -83 callgsubr
          hintmask 1010111011101000
          -31 callgsubr
          hintmask 1010111011100100
          -59 callsubr
          -499 485 -43 callsubr
          hintmask 1001011011101000
          -29 callgsubr
        </CharString>
        <CharString name="fiveinferior">
          -285 -161 32 callgsubr
          251 -46 callgsubr
        </CharString>
        <CharString name="fivesuperior">
          -285 409 32 callgsubr
          821 -46 callgsubr
        </CharString>
        <CharString name="florin">
          8 -191 47 -47 142 497 32 166 134 -31 31 hstemhm
          hintmask 10110000
          193 448 rmoveto
          80 hlineto
          -69 -427 rlineto
          -114 -19 -35 -51 -56 hhcurveto
          -19 -12 11 38 -9 hvcurveto
          hintmask 01101000
          33 -8 -14 13 -25 hhcurveto
          -36 -29 -28 -38 -51 46 -25 55 142 99 119 217 35 hvcurveto
          49 303 rlineto
          129 hlineto
          5 32 rlineto
          -129 hlineto
          9 55 rlineto
          147 24 39 67 67 hhcurveto
          25 11 -15 -37 4 hvcurveto
          hintmask 10110000
          -37 4 11 -14 26 hhcurveto
          34 24 25 34 46 -42 29 -69 -91 -87 -50 -77 -42 hvcurveto
          -17 -31 -8 -34 -17 -108 rrcurveto
          -76 hlineto
          endchar
        </CharString>
        <CharString name="four">
          -85 21 -21 213 76 491 -20 hstem
          338 101 vstem
          338 -25 callgsubr
        </CharString>
        <CharString name="four.denominator">
          -291 0 44 callsubr
          36 6 callgsubr
          hintmask 01110000
          -60 callgsubr
          endchar
        </CharString>
        <CharString name="four.numerator">
          -291 320 44 callsubr
          356 6 callgsubr
          hintmask 01110000
          -60 callgsubr
          endchar
        </CharString>
        <CharString name="four.oldstyle">
          -111 -160 -21 191 90 440 -20 hstem
          312 101 vstem
          312 -181 rmoveto
          101 191 113 90 -113 430 hlineto
          -26 10 -383 -513 8 -17 rlineto
          300 hlineto
          90 vmoveto
          -194 hlineto
          -1 4 191 254 rlineto
          4 hlineto
          endchar
        </CharString>
        <CharString name="four.tnum">
          -67 21 -21 213 76 491 -20 hstem
          368 101 vstem
          368 -25 callgsubr
        </CharString>
        <CharString name="fourinferior">
          -261 -154 190 -64 64 320 -20 hstemhm
          215 89 hintmask 10110000
          215 -115 68 callsubr
          hintmask 01110000
          -3 callsubr
        </CharString>
        <CharString name="foursuperior">
          -261 416 190 -64 64 179 -20 161 -20 hstemhm
          215 89 hintmask 10111000
          215 455 68 callsubr
          hintmask 01111000
          -3 callsubr
        </CharString>
        <CharString name="fraction">
          -447 39 callgsubr
          hstem
          -90 hmoveto
          57 callsubr
        </CharString>
        <CharString name="g">
          -8 callgsubr
          5 71 30 callgsubr
          189 102 -42 77 hintmask 1111010010000000
          220 -260 -71 callsubr
          hintmask 1111001100000000
          -94 callsubr
          hintmask 1111100010000000
          -96 callsubr
          hintmask 1111001100000000
          -36 callgsubr
          endchar
        </CharString>
        <CharString name="gbreve">
          -8 callgsubr
          5 71 35 74 -74 139 30 callgsubr
          189 102 -42 77 hintmask 1111100100100000
          220 -260 -71 callsubr
          hintmask 1111100011000000
          -94 callsubr
          hintmask 1111101000100000
          -96 callsubr
          hintmask 1111010011000000
          -36 callgsubr
          -114 566 -56 callgsubr
          hintmask 1111101001000000
          24 callgsubr
          hintmask 1111011001000000
          2 callsubr
        </CharString>
        <CharString name="gcircumflex">
          -8 callgsubr
          5 71 241 -20 30 callgsubr
          189 102 -42 77 hintmask 1111101001000000
          220 -260 -71 callsubr
          hintmask 1111100110000000
          -94 callsubr
          hintmask 1111110001000000
          -96 callsubr
          hintmask 1111100110000000
          -36 callgsubr
          14 633 rmoveto
          -99 callgsubr
        </CharString>
        <CharString name="gcommaaccent">
          -8 callgsubr
          0 111 -106 71 237 -20 30 callgsubr
          50 61 -61 110 29 102 -42 77 hintmask 1101011000110000
          301 853 rmoveto
          -58 -34 -30 -45 -57 vvcurveto
          -36 22 -30 32 32 24 22 29 vhcurveto
          hintmask 1110110101001000
          47 -49 -8 36 vvcurveto
          13 18 22 25 17 vhcurveto
          -97 -1089 -71 callsubr
          hintmask 1110110011010000
          -94 callsubr
          hintmask 1110111001001000
          -96 callsubr
          hintmask 1110110011010000
          -36 callgsubr
          endchar
        </CharString>
        <CharString name="gdotaccent">
          -8 callgsubr
          5 71 35 129 30 callgsubr
          45 129 15 102 -42 77 hintmask 1111101010100000
          220 -260 -71 callsubr
          hintmask 1111100111000000
          -94 callsubr
          hintmask 1111110010100000
          -96 callsubr
          hintmask 1111100111000000
          -36 callgsubr
          -47 491 -103 callgsubr
          endchar
        </CharString>
        <CharString name="germandbls">
          27 0 20 -9 -21 488 32 284 36 hstemhm
          114 95 131 24 -24 79 36 86 50 77 hintmask 1011110110000000
          26 478 rmoveto
          88 -444 hlineto
          -75 -15 rlineto
          -19 256 19 vlineto
          -86 15 rlineto
          551 vlineto
          136 46 73 86 68 46 -46 -70 vhcurveto
          -110 -115 -68 -112 -166 251 28 -139 vvcurveto
          -55 -39 -36 -61 -75 -44 53 101 -8 vhcurveto
          -24 hlineto
          6 -162 rlineto
          hintmask 0111101110000000
          -13 39 57 -9 42 hhcurveto
          113 71 63 99 hvcurveto
          186 -249 -39 129 90 122 65 111 vvcurveto
          84 -69 52 -112 -108 -88 -49 -78 -32 vhcurveto
          -14 -35 -4 -42 -116 vvcurveto
          -76 hlineto
          endchar
        </CharString>
        <CharString name="grave">
          -497 78 callsubr
          160 642 -86 callgsubr
        </CharString>
        <CharString name="grave.cap">
          -416 79 callgsubr
          241 837 rmoveto
          -144 107 rlineto
          -76 callgsubr
        </CharString>
        <CharString name="greater">
          -147 142 -21 440 -20 hstem
          481 8 callgsubr
        </CharString>
        <CharString name="greater.tnum">
          -67 142 -21 440 -20 hstem
          506 8 callgsubr
        </CharString>
        <CharString name="guillemotleft">
          -231 74 -21 383 -20 hstem
          209 61 -11 callsubr
          168 8 -11 callsubr
          endchar
        </CharString>
        <CharString name="guillemotright">
          -231 74 -21 383 -20 hstem
          239 53 -11 callgsubr
          -144 -8 -11 callgsubr
          endchar
        </CharString>
        <CharString name="guilsinglleft">
          -387 74 -21 383 -20 hstem
          209 61 -11 callsubr
          endchar
        </CharString>
        <CharString name="guilsinglright">
          -387 74 -21 383 -20 hstem
          83 53 -11 callgsubr
          endchar
        </CharString>
        <CharString name="h">
          -48 41 callgsubr
          290 -20 hstem
          99 95 234 -86 callsubr
          endchar
        </CharString>
        <CharString name="hbar">
          -48 41 callgsubr
          69 65 156 -20 hstemhm
          25 169 -95 95 234 95 hintmask 11111010
          -87 callsubr
          152 138 65 -138 156 -10 vlineto
          -159 -48 rlineto
          -14 vlineto
          hintmask 11110110
          74 -27 rlineto
          -67 vlineto
          hintmask 11111010
          -74 -65 hlineto
          74 -574 hlineto
          -62 callsubr
          endchar
        </CharString>
        <CharString name="hcircumflex">
          -48 41 callgsubr
          290 -20 47 -20 hstem
          99 95 234 -86 callsubr
          129 837 rmoveto
          -99 callgsubr
        </CharString>
        <CharString name="hdotbelow">
          -48 51 callsubr
          485 55 290 -20 hstem
          99 95 55 129 50 -86 callsubr
          -20 -212 -103 callgsubr
          endchar
        </CharString>
        <CharString name="hungarumlaut">
          -338 78 callsubr
          190 631 -101 callsubr
          -138 -11 -101 callsubr
          endchar
        </CharString>
        <CharString name="hungarumlaut.cap">
          -292 79 callgsubr
          21 816 -26 callgsubr
        </CharString>
        <CharString name="hyphen">
          32 callsubr
        </CharString>
        <CharString name="i">
          21 9 callsubr
          hintmask 11110000
          -10 callgsubr
          hintmask 11101000
          112 -680 -92 callsubr
          endchar
        </CharString>
        <CharString name="iacute">
          40 callsubr
          339 -20 hstem
          107 95 vstem
          202 35 -92 callsubr
          -172 611 -101 callsubr
          endchar
        </CharString>
        <CharString name="ibreve">
          21 70 callgsubr
          74 -74 139 hstemhm
          107 95 hintmask 11011000
          202 35 -92 callsubr
          -260 770 -56 callgsubr
          hintmask 11101000
          24 callgsubr
          hintmask 11011000
          2 callsubr
        </CharString>
        <CharString name="icircumflex">
          40 callsubr
          337 -20 hstem
          107 95 vstem
          202 35 -92 callsubr
          -121 837 rmoveto
          -99 callgsubr
        </CharString>
        <CharString name="idieresis">
          40 callsubr
          150 110 hstemhm
          6 110 -9 95 -9 110 hintmask 11101000
          202 35 rmoveto
          505 vlineto
          hintmask 11110100
          -9 hlineto
          -160 -48 rlineto
          -14 vlineto
          hintmask 11101000
          74 -27 rlineto
          -416 -64 callgsubr
          hintmask 11110100
          -271 705 -102 callgsubr
        </CharString>
        <CharString name="idotbelow">
          -256 129 148 9 callsubr
          hintmask 11111000
          -10 callgsubr
          hintmask 11110100
          112 -680 -92 callsubr
          hintmask 11111000
          -187 -212 -103 callgsubr
          endchar
        </CharString>
        <CharString name="igrave">
          40 callsubr
          339 -20 hstem
          107 95 vstem
          202 35 -92 callsubr
          -80 622 -86 callgsubr
        </CharString>
        <CharString name="ij">
          -87 -260 47 -47 142 139 9 callsubr
          180 20 callsubr
          hintmask 1011110100000000
          -10 callgsubr
          hintmask 1011101010000000
          112 -680 -92 callsubr
          122 -68 rmoveto
          -58 callgsubr
          hintmask 0111110010000000
          30 -11 -16 16 -28 hhcurveto
          -33 -21 -23 -37 -51 42 -31 68 80 68 45 84 46 hvcurveto
          29 53 4 37 196 vvcurveto
          385 -9 vlineto
          -160 -48 rlineto
          -14 vlineto
          74 -27 rlineto
          hintmask 1011110100000000
          -38 callgsubr
        </CharString>
        <CharString name="imacron">
          40 callsubr
          189 71 hstem
          107 95 vstem
          202 35 -92 callsubr
          11 689 -33 callgsubr
        </CharString>
        <CharString name="iogonek">
          -256 55 222 63 callgsubr
          hstemhm
          20 88 -18 20 callsubr
          hintmask 11111000
          217 -47 callgsubr
          38 42 23 47 46 55 hvcurveto
          100 20 hlineto
          hintmask 11110010
          -75 15 rlineto
          505 -9 vlineto
          -160 -48 rlineto
          -14 vlineto
          74 -27 rlineto
          -416 vlineto
          -52 callsubr
          103 vlineto
          hintmask 11111000
          -71 -54 -43 -62 -52 -40 callsubr
          hintmask 11110100
          -142 917 -103 callgsubr
          endchar
        </CharString>
        <CharString name="itilde">
          40 callsubr
          162 -49 callsubr
          107 95 hintmask 11010110
          202 35 -92 callsubr
          -252 663 -50 callgsubr
          hintmask 11100110
          -93 callsubr
          hintmask 11001010
          -77 callsubr
        </CharString>
        <CharString name="j">
          -387 -16 callgsubr
          658 -20 131 129 hstemhm
          82 20 callsubr
          hintmask 10110100
          99 -48 rmoveto
          -58 callgsubr
          hintmask 01110100
          30 -11 -16 16 -28 hhcurveto
          -33 -21 -23 -37 -51 42 -31 68 80 68 45 84 46 hvcurveto
          29 53 4 37 196 vvcurveto
          385 -9 vlineto
          -160 -48 rlineto
          -14 vlineto
          74 -27 rlineto
          hintmask 10111000
          -38 callgsubr
        </CharString>
        <CharString name="jcircumflex">
          -387 -16 callgsubr
          658 -20 337 -20 hstemhm
          99 95 hintmask 10111000
          99 -48 rmoveto
          -58 callgsubr
          hintmask 01111000
          30 -11 -16 16 -28 hhcurveto
          -33 -21 -23 -37 -51 42 -31 68 80 68 45 84 46 hvcurveto
          29 53 4 37 196 vvcurveto
          385 -9 vlineto
          -160 -48 rlineto
          -14 vlineto
          74 -27 rlineto
          51 406 rmoveto
          -99 callgsubr
        </CharString>
        <CharString name="k">
          -76 21 -21 530 -20 320 -20 hstem
          99 92 vstem
          305 510 rmoveto
          -37 callgsubr
          570 -10 vlineto
          -155 40 callgsubr
          -27 rlineto
          -706 -77 callgsubr
          30 35 15 7 81 15 rlinecurve
          20 -224 vlineto
          endchar
        </CharString>
        <CharString name="kcommaaccent">
          -76 53 callsubr
          44 530 -20 320 -20 hstemhm
          99 92 79 66 callsubr
          hintmask 11111100
          305 510 rmoveto
          -37 callgsubr
          570 -10 vlineto
          -155 40 callgsubr
          -27 rlineto
          -706 -77 callgsubr
          30 35 15 7 81 15 rlinecurve
          20 -224 vlineto
          -13 -776 rmoveto
          -82 callgsubr
          hintmask 11111010
          -74 callgsubr
        </CharString>
        <CharString name="kgreenlandic">
          -68 21 -21 530 -20 30 -20 hstemhm
          107 92 hintmask 11010000
          313 510 rmoveto
          -37 callgsubr
          hintmask 10110000
          280 -10 vlineto
          -155 40 callgsubr
          -27 rlineto
          -416 -77 callgsubr
          rlineto
          hintmask 11010000
          30 35 15 7 81 15 rrcurveto
          20 -224 vlineto
          endchar
        </CharString>
        <CharString name="l">
          81 callsubr
          hstem
          99 92 vstem
          191 34 -68 callsubr
          endchar
        </CharString>
        <CharString name="lacute">
          81 callsubr
          150 -20 hstem
          99 92 vstem
          38 816 -80 callsubr
          25 -21 18 -22 -16 -13 -5 -11 -15 vhcurveto
          -144 -107 rlineto
          164 -803 -68 callsubr
          endchar
        </CharString>
        <CharString name="lcaron">
          81 callsubr
          47 -20 hstem
          99 92 67 84 vstem
          191 34 -68 callsubr
          21 623 -50 callsubr
        </CharString>
        <CharString name="lcommaaccent">
          -378 -235 -21 202 54 830 -20 hstemhm
          99 92 -52 52 hintmask 11110000
          191 34 -68 callsubr
          -148 -275 rmoveto
          -82 callgsubr
          hintmask 11101000
          -74 callgsubr
        </CharString>
        <CharString name="ldot">
          -293 21 -21 219 138 473 -20 hstem
          99 92 72 138 vstem
          191 34 -68 callsubr
          3 268 -89 callgsubr
          endchar
        </CharString>
        <CharString name="less">
          -148 137 -21 440 -20 hstem
          447 8 callsubr
        </CharString>
        <CharString name="less.tnum">
          -67 137 -21 440 -20 hstem
          503 8 callsubr
        </CharString>
        <CharString name="logicalnot">
          -95 168 -21 117 44 hstem
          443 51 vstem
          443 147 rmoveto
          51 161 -410 -44 359 hlineto
          endchar
        </CharString>
        <CharString name="lslash">
          -369 21 -21 830 -20 hstemhm
          19 175 -92 92 -92 180 hintmask 11100000
          19 306 rmoveto
          hintmask 11010000
          83 44 rlineto
          -316 vlineto
          -70 -15 rlineto
          -19 231 19 vlineto
          -69 15 rlineto
          366 vlineto
          hintmask 11001000
          88 47 rlineto
          65 vlineto
          hintmask 11100000
          -88 -47 rlineto
          365 -9 vlineto
          -153 -49 rlineto
          -13 vlineto
          hintmask 11010000
          70 -26 rlineto
          -327 vlineto
          hintmask 11100000
          -83 -44 rlineto
          endchar
        </CharString>
        <CharString name="m">
          240 41 callgsubr
          hstem
          107 95 208 95 208 95 cntrmask 00111000
          59 callgsubr
          35 22 -15 -31 11 hvcurveto
          6 -22 6 -32 -57 vvcurveto
          -294 vlineto
          -75 -14 rlineto
          -20 245 20 vlineto
          -75 14 rlineto
          304 vlineto
          37 -1 26 -1 20 vhcurveto
          41 34 47 23 49 hhcurveto
          35 23 -15 -31 10 hvcurveto
          7 -22 5 -32 -57 vvcurveto
          -294 vlineto
          -75 -14 rlineto
          -20 245 20 vlineto
          -75 14 rlineto
          304 vlineto
          96 -3 25 -10 21 vhcurveto
          37 -18 -40 23 -48 hhcurveto
          -64 -68 -31 -55 -57 hvcurveto
          56 -10 -52 30 -52 4 callsubr
          endchar
        </CharString>
        <CharString name="macron">
          -360 709 71 hstem
          297 709 -33 callgsubr
        </CharString>
        <CharString name="macron.cap">
          -360 877 71 hstem
          297 877 -33 callgsubr
        </CharString>
        <CharString name="minus">
          -101 315 49 hstem
          488 315 15 callsubr
        </CharString>
        <CharString name="minus.tnum">
          -67 315 49 hstem
          505 315 15 callsubr
        </CharString>
        <CharString name="mu">
          -43 88 callgsubr
          91 85 callsubr
          417 -57 callgsubr
        </CharString>
        <CharString name="multiply">
          -176 181 -21 357 -20 hstem
          68 -18 callgsubr
        </CharString>
        <CharString name="multiply.tnum">
          -67 181 -21 357 -20 hstem
          122 -18 callgsubr
        </CharString>
        <CharString name="n">
          -56 41 callgsubr
          hstem
          107 95 218 95 vstem
          202 -104 callsubr
          endchar
        </CharString>
        <CharString name="nacute">
          -56 41 callgsubr
          319 -20 hstem
          107 95 218 95 vstem
          202 -104 callsubr
          19 611 -101 callsubr
          endchar
        </CharString>
        <CharString name="napostrophe">
          -26 41 callgsubr
          317 -20 hstemhm
          42 115 -56 56 -20 95 218 95 hintmask 11100110
          232 -104 callsubr
          -238 620 rmoveto
          hintmask 11110010
          45 callsubr
          hintmask 11101010
          62 callsubr
        </CharString>
        <CharString name="ncaron">
          -56 41 callgsubr
          0 90 229 -20 hstemhm
          107 95 218 95 hintmask 11011100
          202 -104 callsubr
          hintmask 10111100
          47 610 -92 callgsubr
        </CharString>
        <CharString name="ncommaaccent">
          -56 53 callsubr
          44 485 55 hstemhm
          107 95 53 66 callsubr
          55 95 hintmask 11111010
          202 -104 callsubr
          -266 vmoveto
          -82 callgsubr
          hintmask 11110110
          -74 callgsubr
        </CharString>
        <CharString name="ndotaccent">
          -56 41 callgsubr
          111 129 hstem
          107 95 56 129 33 95 vstem
          202 -104 callsubr
          -19 695 -103 callgsubr
          endchar
        </CharString>
        <CharString name="nine">
          -76 11 -21 313 57 372 45 hstem
          37 119 262 117 vstem
          290 -55 callgsubr
        </CharString>
        <CharString name="nine.denominator">
          -285 11 43 callgsubr
          453 -44 callsubr
        </CharString>
        <CharString name="nine.numerator">
          -285 336 43 callgsubr
          778 -44 callsubr
        </CharString>
        <CharString name="nine.oldstyle">
          -148 -176 -21 283 57 352 45 hstem
          38 119 202 117 vstem
          258 540 rmoveto
          -129 -91 -98 -141 -125 78 -90 107 51 48 20 32 23 hvcurveto
          4 -2 -23 -134 -85 -96 -165 -77 rlinecurve
          13 -26 rlineto
          238 77 149 177 208 vvcurveto
          171 -82 104 -136 vhcurveto
          -3 -45 rmoveto
          64 40 -76 -115 -39 -5 -39 -7 -29 hvcurveto
          -34 -19 -30 -20 -35 hhcurveto
          -64 -42 69 107 108 38 68 60 hvcurveto
          endchar
        </CharString>
        <CharString name="nine.tnum">
          -67 11 -21 313 57 372 45 hstem
          42 119 262 117 vstem
          295 -55 callgsubr
        </CharString>
        <CharString name="nineinferior">
          -256 -140 44 callgsubr
          354 -45 callsubr
        </CharString>
        <CharString name="ninesuperior">
          -256 430 44 callgsubr
          924 -45 callsubr
        </CharString>
        <CharString name="ntilde">
          -56 41 callgsubr
          142 -49 callsubr
          107 95 218 95 hintmask 11010111
          202 -104 callsubr
          -84 663 -81 callgsubr
        </CharString>
        <CharString name="numbersign">
          7 55 callgsubr
          460 -71 callgsubr
        </CharString>
        <CharString name="numbersign.tnum">
          -67 55 callgsubr
          422 -71 callgsubr
        </CharString>
        <CharString name="o">
          1 callsubr
          hstem
          45 106 314 106 vstem
          -104 callgsubr
          endchar
        </CharString>
        <CharString name="oacute">
          1 callsubr
          319 -20 hstem
          45 106 314 106 vstem
          -104 callgsubr
          144 366 -101 callsubr
          endchar
        </CharString>
        <CharString name="obreve">
          1 callsubr
          111 74 -74 139 hstemhm
          45 106 314 106 hintmask 11011100
          -104 callgsubr
          21 525 -56 callgsubr
          hintmask 11101100
          24 callgsubr
          hintmask 11011100
          2 callsubr
        </CharString>
        <CharString name="ocircumflex">
          1 callsubr
          317 -20 hstem
          45 106 314 106 vstem
          -104 callgsubr
          170 592 rmoveto
          -99 callgsubr
        </CharString>
        <CharString name="odieresis">
          1 callsubr
          130 110 hstem
          45 106 10 25 callgsubr
          7 106 vstem
          -104 callgsubr
          10 460 -102 callgsubr
        </CharString>
        <CharString name="odotbelow">
          -51 -258 129 119 45 460 45 hstem
          45 106 94 129 91 106 vstem
          -104 callgsubr
          94 -459 -103 callgsubr
          endchar
        </CharString>
        <CharString name="oe">
          317 -10 45 -45 73 245 32 155 45 -31 31 hstemhm
          45 106 314 106 267 105 hintmask 10110111
          943 314 rmoveto
          148 -3 -71 78 -131 hhcurveto
          -94 -77 -41 -68 -46 hvcurveto
          67 -47 -76 42 -90 hhcurveto
          -151 -112 -117 -158 -158 112 -117 151 87 74 38 63 47 hvcurveto
          -63 42 68 -38 85 hhcurveto
          -79 callgsubr
          hintmask 01110111
          -42 -35 -59 -25 -65 hhcurveto
          -114 -59 76 146 hvcurveto
          23 365 vlineto
          -785 -43 rmoveto
          144 59 86 98 98 59 -86 -143 vhcurveto
          hintmask 10101111
          -144 -60 -87 -98 -97 -59 86 144 vhcurveto
          578 244 rmoveto
          72 37 -41 -82 -16 -1 -17 -2 -8 hvcurveto
          -262 -9 rlineto
          111 13 55 62 88 hhcurveto
          endchar
        </CharString>
        <CharString name="ogonek">
          -435 -256 55 212 -20 hstem
          10 88 vstem
          207 -47 callgsubr
          38 44 26 51 53 60 hvcurveto
          -38 hlineto
          -80 -56 -49 -68 -55 -40 callsubr
          endchar
        </CharString>
        <CharString name="ograve">
          1 callsubr
          319 -20 hstem
          45 106 314 106 vstem
          -104 callgsubr
          202 377 -86 callgsubr
        </CharString>
        <CharString name="ohungarumlaut">
          1 callsubr
          319 -20 hstem
          45 106 314 106 vstem
          -104 callgsubr
          232 366 -101 callsubr
          -138 -11 -101 callsubr
          endchar
        </CharString>
        <CharString name="omacron">
          1 callsubr
          169 71 hstem
          45 106 314 106 vstem
          -104 callgsubr
          306 444 -33 callgsubr
        </CharString>
        <CharString name="one">
          -247 21 -21 780 -20 hstem
          171 105 vstem
          255 -1 callsubr
        </CharString>
        <CharString name="one.denominator">
          -376 21 -21 459 -20 hstem
          111 81 vstem
          170 459 -72 callsubr
          endchar
        </CharString>
        <CharString name="one.numerator">
          -372 341 -21 459 -20 hstem
          115 81 vstem
          174 779 -72 callsubr
          endchar
        </CharString>
        <CharString name="one.oldstyle">
          -234 40 callsubr
          hstem
          197 105 vstem
          281 540 rmoveto
          -76 -68 -73 -38 -83 -14 rrcurveto
          -21 148 -357 vlineto
          -152 -20 rlineto
          -22 376 22 vlineto
          -119 20 rlineto
          490 vlineto
          endchar
        </CharString>
        <CharString name="one.tnum">
          -67 21 -21 780 -20 hstem
          268 105 vstem
          352 -1 callsubr
        </CharString>
        <CharString name="oneeighth">
          171 -10 36 -5 -21 420 35 315 51 callgsubr
          290 9 callgsubr
          hintmask 0111011010000000
          204 hmoveto
          -69 callsubr
          hintmask 1010110110000000
          46 779 -72 callsubr
          493 -519 -61 callgsubr
          hintmask 1011011001000000
          -83 callgsubr
          hintmask 1011011010000000
          -31 callgsubr
          hintmask 1011011001000000
          -13 callgsubr
        </CharString>
        <CharString name="onehalf">
          167 0 78 -76 -21 422 56 311 51 callgsubr
          485 89 hintmask 10110110
          204 hmoveto
          -69 callsubr
          hintmask 10101110
          46 779 -72 callsubr
          513 -775 rmoveto
          hintmask 01110110
          15 callgsubr
          rlineto
          hintmask 10110110
          -14 -26 -16 -21 -13 -12 rrcurveto
          -76 callsubr
        </CharString>
        <CharString name="oneinferior">
          -316 -133 -21 510 -20 hstem
          141 90 vstem
          207 356 rmoveto
          -47 -44 -46 -25 -54 -11 rrcurveto
          -28 81 -361 vlineto
          -82 -17 rlineto
          -24 255 24 vlineto
          -83 17 rlineto
          464 vlineto
          endchar
        </CharString>
        <CharString name="onequarter">
          141 0 171 -57 57 599 51 callgsubr
          421 81 hintmask 10101100
          234 hmoveto
          -69 callsubr
          hintmask 10011100
          16 779 -72 callsubr
          421 -739 6 callgsubr
          hintmask 01101100
          -60 callgsubr
          endchar
        </CharString>
        <CharString name="onesuperior">
          -316 437 -21 510 -20 hstem
          140 90 vstem
          206 926 rmoveto
          -47 -44 -46 -25 -54 -11 rrcurveto
          -28 81 -361 vlineto
          -82 -17 rlineto
          -24 255 24 vlineto
          -83 17 rlineto
          464 vlineto
          endchar
        </CharString>
        <CharString name="onethird">
          158 74 callsubr
          -55 55 315 51 callgsubr
          464 82 -54 81 hintmask 0011010110000000
          204 hmoveto
          -69 callsubr
          hintmask 1001001101000000
          46 779 -72 callsubr
          370 -565 rmoveto
          -28 callgsubr
          hintmask 0101010101000000
          -67 callgsubr
          hintmask 1000110110000000
          -84 callgsubr
          endchar
        </CharString>
        <CharString name="oogonek">
          -51 -258 55 194 44 460 45 hstem
          45 106 29 88 197 106 vstem
          377 -182 rmoveto
          -15 -22 -15 -6 -19 hhcurveto
          -35 -18 19 38 40 21 45 42 52 hvcurveto
          139 11 101 113 150 vvcurveto
          158 -112 117 -151 -151 -112 -117 -158 -150 100 -113 140 -11 vhcurveto
          -66 -52 -39 -60 -49 -40 callsubr
          -241 469 rmoveto
          144 59 86 98 98 59 -86 -143 -144 -60 -87 -98 -97 -59 86 144 vhcurveto
          endchar
        </CharString>
        <CharString name="ordfeminine">
          -250 422 45 278 35 hstem
          58 74 105 72 vstem
          143 422 rmoveto
          35 33 19 36 27 hvcurveto
          4 -1 rlineto
          -35 6 22 -19 34 hhcurveto
          29 23 14 30 20 hvcurveto
          -16 15 rlineto
          -10 -10 -7 -4 -10 hhcurveto
          -19 -5 12 42 hvcurveto
          139 vlineto
          56 -1 14 -7 15 vhcurveto
          21 -11 -31 14 -38 hhcurveto
          -29 -30 -7 -13 -24 hvcurveto
          -42 -21 -28 -34 -29 vvcurveto
          -18 12 -13 18 19 15 16 21 vhcurveto
          8 -2 8 7 vvcurveto
          24 24 16 35 35 13 -18 -47 vhcurveto
          -58 vlineto
          -129 -29 -50 -33 -58 vvcurveto
          -48 35 -32 50 vhcurveto
          37 49 rmoveto
          -30 -18 16 28 42 26 19 79 17 hvcurveto
          -79 vlineto
          -30 -16 -18 -13 -23 hhcurveto
          endchar
        </CharString>
        <CharString name="ordmasculine">
          -225 422 34 289 35 hstem
          50 79 184 79 vstem
          221 780 rmoveto
          -98 -73 -76 -103 -103 73 -76 98 98 73 76 103 103 -73 76 -98 hvcurveto
          -92 -179 rmoveto
          91 34 53 58 58 34 -53 -90 -91 -35 -55 -58 -57 -34 54 91 vhcurveto
          endchar
        </CharString>
        <CharString name="oslash">
          88 callsubr
          hstemhm
          50 106 314 106 hintmask 10011100
          13 callgsubr
          hintmask 01101100
          7 callsubr
          hintmask 10101100
          -30 callgsubr
          endchar
        </CharString>
        <CharString name="oslashacute">
          88 callsubr
          349 -20 hstemhm
          50 106 314 106 hintmask 10011110
          13 callgsubr
          hintmask 01101110
          7 callsubr
          hintmask 10101110
          -30 callgsubr
          -13 596 -101 callsubr
          endchar
        </CharString>
        <CharString name="otilde">
          1 callsubr
          142 -49 callsubr
          45 106 314 106 hintmask 11010111
          -104 callgsubr
          37 418 -81 callgsubr
        </CharString>
        <CharString name="p">
          -52 -229 -21 240 30 455 65 hstem
          98 95 271 104 vstem
          193 5 rmoveto
          -11 33 32 -4 32 hhcurveto
          165 113 116 167 154 -86 113 -125 -59 -64 -27 -61 -40 hvcurveto
          -4 88 -11 hlineto
          -154 -48 rlineto
          -14 vlineto
          73 -27 rlineto
          -667 vlineto
          -75 -15 rlineto
          -19 269 19 vlineto
          -99 15 rlineto
          101 236 rmoveto
          -54 -42 40 58 hvcurveto
          299 vlineto
          33 17 51 25 41 hhcurveto
          97 60 -83 -135 -140 -68 -97 -102 hvcurveto
          endchar
        </CharString>
        <CharString name="paragraph">
          -84 -87 -21 838 40 hstem
          294 46 60 46 vstem
          340 -9 callgsubr
        </CharString>
        <CharString name="paragraph.tnum">
          -67 -87 -21 838 40 hstem
          313 46 60 46 vstem
          359 -9 callgsubr
        </CharString>
        <CharString name="parenleft">
          -362 -179 -21 1030 -20 hstem
          47 92 vstem
          267 -187 rmoveto
          -47 77 -81 159 255 vvcurveto
          215 89 223 51 78 vhcurveto
          -11 10 rlineto
          -97 -81 -124 -214 -230 vvcurveto
          -255 116 -160 88 -90 vhcurveto
          endchar
        </CharString>
        <CharString name="parenright">
          -362 -179 -21 1030 -20 hstem
          166 92 vstem
          54 -200 rmoveto
          88 90 116 160 255 vvcurveto
          230 -124 214 -97 81 vhcurveto
          -11 -10 rlineto
          51 -78 89 -223 -215 vvcurveto
          -255 -81 -159 -47 -77 vhcurveto
          endchar
        </CharString>
        <CharString name="percent">
          140 47 callgsubr
          36 67 callgsubr
          193 779 -74 callsubr
          hintmask 1001101111000000
          421 -329 -74 callsubr
          hintmask 0110011111000000
          -409 -380 rmoveto
          57 callsubr
        </CharString>
        <CharString name="percent.tnum">
          383 47 callgsubr
          142 67 callgsubr
          299 779 -74 callsubr
          hintmask 1001101111000000
          421 -329 -74 callsubr
          hintmask 0110011111000000
          -409 -380 rmoveto
          57 callsubr
        </CharString>
        <CharString name="period">
          -405 -10 138 hstem
          62 138 vstem
          62 58 -89 callgsubr
          endchar
        </CharString>
        <CharString name="period.tnum">
          -10 138 hstem
          81 138 vstem
          81 58 -89 callgsubr
          endchar
        </CharString>
        <CharString name="periodcentered">
          -385 219 138 hstem
          72 138 vstem
          72 287 -89 callgsubr
          endchar
        </CharString>
        <CharString name="periodcentered.tnum">
          219 138 hstem
          81 138 vstem
          81 287 -89 callgsubr
          endchar
        </CharString>
        <CharString name="perthousand">
          384 -10 36 -5 -21 340 35 19 36 314 35 -9 -20 hstemhm
          48 95 105 95 29 95 105 95 54 95 105 95 hintmask 1011101111110000
          195 779 rmoveto
          -82 -65 -86 -109 17 callsubr
          hvcurveto
          -21 callsubr
          324 -369 rmoveto
          -82 -65 -86 -109 17 callsubr
          hvcurveto
          -21 callsubr
          hintmask 0111011111110000
          -361 -340 rmoveto
          -69 callsubr
          779 375 rmoveto
          -82 -65 -86 -109 hvcurveto
          hintmask 1011101111110000
          17 callsubr
          vhcurveto
          -21 callsubr
          endchar
        </CharString>
        <CharString name="plus">
          -165 155 -21 181 49 180 -20 hstem
          226 51 vstem
          226 134 -30 callsubr
          endchar
        </CharString>
        <CharString name="plus.tnum">
          -67 155 -21 181 49 180 -20 hstem
          275 51 vstem
          275 134 -30 callsubr
          endchar
        </CharString>
        <CharString name="plusminus">
          -91 106 49 267 49 180 -20 hstem
          263 51 vstem
          263 241 -30 callsubr
          230 -316 15 callsubr
        </CharString>
        <CharString name="plusminus.tnum">
          -67 106 49 267 49 180 -20 hstem
          275 51 vstem
          275 241 -30 callsubr
          230 -316 15 callsubr
        </CharString>
        <CharString name="q">
          -65 -229 -21 240 54 464 32 hstem
          47 107 266 95 vstem
          321 -231 rmoveto
          -19 269 19 vlineto
          -75 15 rlineto
          744 -16 vlineto
          -45 -34 rlineto
          -5 hlineto
          30 -40 -48 16 -50 hhcurveto
          -158 -106 -114 -183 -150 90 -103 131 59 51 23 45 42 hvcurveto
          -274 vlineto
          -109 724 rmoveto
          66 43 -50 -76 hvcurveto
          -286 vlineto
          -32 -26 -39 -20 -45 hhcurveto
          -97 -59 86 141 158 64 79 93 hvcurveto
          endchar
        </CharString>
        <CharString name="question">
          -256 -10 130 233 89 338 -20 hstemhm
          50 130 -82 36 198 34 hintmask 11101100
          134 230 rmoveto
          122 vlineto
          30 1 rlineto
          130 4 72 62 110 vvcurveto
          136 -108 115 -126 -37 -16 -10 -25 -29 17 -11 103 -39 vhcurveto
          90 -35 43 -42 -51 vvcurveto
          -64 -66 -32 -129 vhcurveto
          -39 -212 hlineto
          hintmask 11110100
          -48 -175 rmoveto
          -39 26 -26 38 39 27 27 38 38 -27 27 -38 -39 -26 -27 -38 vhcurveto
          endchar
        </CharString>
        <CharString name="questiondown">
          -263 -235 -21 344 89 233 130 hstemhm
          41 34 152 130 -84 36 hintmask 11110100
          273 300 rmoveto
          -122 vlineto
          -30 -1 rlineto
          -130 -4 -72 -62 -110 vvcurveto
          -142 108 -115 126 37 16 10 25 29 -17 10 -103 40 vhcurveto
          -90 35 -43 48 51 vvcurveto
          64 66 32 129 vhcurveto
          39 212 hlineto
          hintmask 11111000
          48 175 rmoveto
          39 -26 26 -38 -39 -27 -27 -38 -38 27 -27 38 39 26 27 38 vhcurveto
          endchar
        </CharString>
        <CharString name="quotedbl">
          -297 50 callgsubr
          56 106 -68 30 84 106 -68 30 hintmask 11011000
          124 505 rmoveto
          hintmask 11101000
          -48 callgsubr
          hintmask 11010100
          20 callgsubr
          182 hmoveto
          hintmask 11101000
          -48 callgsubr
          hintmask 11100100
          20 callgsubr
          endchar
        </CharString>
        <CharString name="quotedbl.tnum">
          50 callgsubr
          21 106 -68 30 84 106 -68 30 hintmask 11011000
          89 505 rmoveto
          hintmask 11101000
          -48 callgsubr
          hintmask 11010100
          20 callgsubr
          182 hmoveto
          hintmask 11101000
          -48 callgsubr
          hintmask 11100100
          20 callgsubr
          endchar
        </CharString>
        <CharString name="quotedblbase">
          -212 -130 39 callsubr
          62 71 callgsubr
          54 71 callgsubr
          hintmask 11101000
          287 -151 -63 callsubr
          hintmask 11100100
          -39 callgsubr
          -172 -29 -63 callsubr
          hintmask 11011000
          -39 callgsubr
          endchar
        </CharString>
        <CharString name="quotedblleft">
          -230 572 39 callsubr
          53 63 -63 138 54 63 -63 138 hintmask 11011000
          158 830 6 callsubr
          hintmask 11100100
          29 callgsubr
          172 29 6 callsubr
          hintmask 11101000
          29 callgsubr
          endchar
        </CharString>
        <CharString name="quotedblright">
          -233 572 39 callsubr
          56 71 callgsubr
          54 71 callgsubr
          hintmask 11101000
          281 551 -63 callsubr
          hintmask 11100100
          -39 callgsubr
          -172 -29 -63 callsubr
          hintmask 11011000
          -39 callgsubr
          endchar
        </CharString>
        <CharString name="quoteleft">
          -422 572 39 callsubr
          53 63 -63 138 hintmask 11010000
          158 830 6 callsubr
          hintmask 11100000
          29 callgsubr
          endchar
        </CharString>
        <CharString name="quoteright">
          -425 572 39 callsubr
          56 71 callgsubr
          hintmask 11100000
          89 551 -63 callsubr
          hintmask 11010000
          -39 callgsubr
          endchar
        </CharString>
        <CharString name="quotesinglbase">
          -404 -130 39 callsubr
          62 71 callgsubr
          hintmask 11100000
          95 -151 -63 callsubr
          hintmask 11010000
          -39 callgsubr
          endchar
        </CharString>
        <CharString name="quotesingle">
          -449 50 callgsubr
          56 106 -68 30 hintmask 11010000
          124 505 rmoveto
          hintmask 11100000
          -48 callgsubr
          hintmask 11010000
          20 callgsubr
          endchar
        </CharString>
        <CharString name="quotesingle.tnum">
          50 callgsubr
          97 106 -68 30 hintmask 11010000
          165 505 rmoveto
          hintmask 11100000
          -48 callgsubr
          hintmask 11010000
          20 callgsubr
          endchar
        </CharString>
        <CharString name="r">
          38 callgsubr
          hstemhm
          108 95 hintmask 10110000
          -62 callgsubr
          hintmask 11010000
          -85 callgsubr
          endchar
        </CharString>
        <CharString name="racute">
          38 callgsubr
          318 -20 hstemhm
          108 95 hintmask 10111000
          -62 callgsubr
          hintmask 11011000
          -85 callgsubr
          -79 611 -101 callsubr
          endchar
        </CharString>
        <CharString name="rcaron">
          38 callgsubr
          0 89 229 -20 hstemhm
          108 95 hintmask 10101100
          -62 callgsubr
          hintmask 11001100
          -85 callgsubr
          hintmask 10011100
          -60 610 -92 callgsubr
        </CharString>
        <CharString name="rcommaaccent">
          -252 -227 -21 202 46 459 82 hstemhm
          108 95 -55 55 hintmask 11110000
          -62 callgsubr
          -85 callgsubr
          -182 -268 rmoveto
          -82 callgsubr
          hintmask 11101000
          -74 callgsubr
        </CharString>
        <CharString name="rdotbelow">
          -252 -258 129 150 -21 421 120 -82 82 hstemhm
          91 20 callsubr
          hintmask 11010100
          -62 callgsubr
          hintmask 11100100
          -85 callgsubr
          hintmask 11101000
          -212 -214 -103 callgsubr
          endchar
        </CharString>
        <CharString name="registered">
          23 227 31 97 161 126 21 87 30 hstem
          67 36 151 54 92 60 126 37 vstem
          67 504 rmoveto
          -153 125 -124 153 153 125 124 153 153 -125 123 -153 -153 -125 -123 -153 vhcurveto
          36 hmoveto
          134 108 112 134 134 107 -112 -134 -134 -107 -112 -134 -134 -108 112 134 vhcurveto
          125 146 rmoveto
          26 -8 rlineto
          -267 vlineto
          -26 -8 rlineto
          -12 116 12 vlineto
          -36 8 rlineto
          120 23 vlineto
          71 -140 rlineto
          86 12 hlineto
          -30 8 -68 125 rlineto
          44 10 26 26 41 vvcurveto
          55 -47 31 -67 vhcurveto
          -118 hlineto
          80 -21 rmoveto
          66 26 -22 -41 -46 -40 -17 -52 hvcurveto
          endchar
        </CharString>
        <CharString name="ring">
          -481 651 35 96 35 hstem
          10 35 96 35 vstem
          93 651 -51 callgsubr
        </CharString>
        <CharString name="ring.cap">
          -507 830 35 70 35 hstem
          10 35 70 35 vstem
          80 830 -51 callsubr
        </CharString>
        <CharString name="s">
          52 callgsubr
          34 callgsubr
          hintmask 11101000
          -98 callgsubr
          hintmask 11110000
          -25 callsubr
          endchar
        </CharString>
        <CharString name="s_t">
          99 -10 32 -32 47 458 35 -20 32 263 35 hstemhm
          45 97 -79 79 17 65 90 77 121 95 -79 79 hintmask 1001101110100000
          213 -10 rmoveto
          109 69 63 99 hvcurveto
          188 -249 -45 134 vvcurveto
          50 35 31 51 37 15 -16 -44 14 vhcurveto
          -29 9 11 -34 37 hhcurveto
          28 20 19 31 45 -41 36 -60 16 hvcurveto
          -51 27 -23 39 57 vvcurveto
          91 60 57 96 96 52 -57 -103 -76 -28 -45 -55 -13 vhcurveto
          hintmask 0110110111000000
          -5 callsubr
          8 35 rlineto
          -143 hlineto
          4 28 2 27 24 vvcurveto
          150 -79 81 -144 -134 -97 -71 -93 -59 38 -55 48 -17 vhcurveto
          -4 vlineto
          hintmask 1001101111000000
          1 -8 -3 0 -2 hhcurveto
          -105 -64 -56 -91 hvcurveto
          -181 251 37 -139 vvcurveto
          -53 -37 -37 -54 -48 -12 29 39 -13 vhcurveto
          hintmask 1010110111000000
          45 -15 -9 18 -31 hhcurveto
          -31 -19 -19 -33 -63 72 -48 96 hvcurveto
          endchar
        </CharString>
        <CharString name="sacute">
          52 callgsubr
          319 -20 34 callgsubr
          hintmask 11110100
          -98 callgsubr
          hintmask 11111000
          -25 callsubr
          -14 91 -101 callsubr
          endchar
        </CharString>
        <CharString name="scaron">
          52 callgsubr
          0 90 229 -20 34 callgsubr
          hintmask 11011010
          -98 callgsubr
          hintmask 11011100
          -25 callsubr
          hintmask 10111100
          -2 90 -92 callgsubr
        </CharString>
        <CharString name="schwa">
          -107 -10 31 168 33 245 73 hstem
          41 105 267 100 vstem
          41 216 rmoveto
          -148 3 71 -78 131 hhcurveto
          159 108 115 168 159 -97 108 -143 -98 -82 -50 -81 -35 hvcurveto
          -6 -14 17 -10 12 15 rlineto
          42 35 59 25 65 hhcurveto
          114 59 -76 -146 -8 0 -8 -1 -7 hvcurveto
          -364 hlineto
          207 -201 rmoveto
          -72 -37 41 82 16 1 17 2 8 hvcurveto
          261 9 rlineto
          -111 -12 -55 -62 -88 hhcurveto
          endchar
        </CharString>
        <CharString name="scircumflex">
          52 callgsubr
          317 -20 34 callgsubr
          hintmask 11110100
          -98 callgsubr
          hintmask 11111000
          -25 callsubr
          -2 317 rmoveto
          -99 callgsubr
        </CharString>
        <CharString name="sdotbelow">
          -232 -3 callgsubr
          117 30 490 30 hstemhm
          58 79 3 129 40 53 -53 77 hintmask 11111010
          -98 callgsubr
          hintmask 11111100
          -25 callsubr
          -104 -732 -103 callgsubr
          endchar
        </CharString>
        <CharString name="section">
          -127 89 callgsubr
          69 79 247 77 hintmask 10111000
          286 -78 callsubr
        </CharString>
        <CharString name="section.tnum">
          -67 89 callgsubr
          101 79 247 77 hintmask 10111000
          318 -78 callsubr
        </CharString>
        <CharString name="semicolon">
          -381 74 callgsubr
          74 71 callgsubr
          hintmask 10110000
          74 -29 callsubr
        </CharString>
        <CharString name="semicolon.tnum">
          74 callgsubr
          81 71 callgsubr
          hintmask 10110000
          81 -29 callsubr
        </CharString>
        <CharString name="servicemark">
          105 462 30 -13 -21 75 -20 257 -20 26 -20 24 -20 hstemhm
          78 62 85 40 -40 57 64 26 229 62 hintmask 1011001101100000
          346 37 callgsubr
          hintmask 0111001101100000
          41 callsubr
          hintmask 1011001101100000
          -1 callgsubr
          hintmask 1010011011100000
          -169 37 rmoveto
          -56 -43 -36 -48 hvcurveto
          -107 147 13 -71 vvcurveto
          -24 -18 -15 -31 -44 -24 24 57 -16 vhcurveto
          -15 -2 7 -103 rlineto
          13 hlineto
          16 17 rlineto
          -14 23 19 -6 22 hhcurveto
          60 45 39 51 hvcurveto
          105 -142 -15 72 vvcurveto
          23 15 13 24 37 23 -21 -44 13 vhcurveto
          15 hlineto
          hintmask 1010101101100000
          -3 88 rlineto
          -13 hlineto
          -13 -21 rlineto
          hintmask 1010011101100000
          17 -18 -19 8 -24 hhcurveto
          endchar
        </CharString>
        <CharString name="seven">
          -174 11 -21 677 90 35 -20 hstem
          124 -38 callsubr
        </CharString>
        <CharString name="seven.denominator">
          -330 11 -21 370 81 27 -20 hstem
          96 441 -52 callgsubr
          68 203 11 26 75 166 -8 16 rcurveline
          endchar
        </CharString>
        <CharString name="seven.numerator">
          -335 336 -21 370 81 27 -20 hstem
          96 766 -52 callgsubr
          68 203 11 26 75 166 -8 16 rcurveline
          endchar
        </CharString>
        <CharString name="seven.oldstyle">
          -176 -176 -21 627 90 35 -20 hstem
          119 520 rmoveto
          -4 28 -23 7 -75 -190 21 -11 64 76 rlineto
          296 hlineto
          -264 -463 rlineto
          -24 -42 -16 -40 -30 vvcurveto
          -33 18 -19 30 29 21 18 40 14 vhcurveto
          120 346 10 21 152 280 -8 12 rcurveline
          endchar
        </CharString>
        <CharString name="seven.tnum">
          -67 11 -21 677 90 35 -20 hstem
          186 -38 callsubr
        </CharString>
        <CharString name="seveneighths">
          166 -10 36 -5 -21 420 35 230 81 4 -20 43 -20 hstemhm
          493 9 callgsubr
          hintmask 0110110110000000
          173 hmoveto
          -69 callsubr
          592 256 -61 callgsubr
          hintmask 1011011001000000
          -83 callgsubr
          hintmask 1011011010000000
          -31 callgsubr
          hintmask 1011011001000000
          -59 callsubr
          -503 565 -52 callgsubr
          hintmask 1010111010000000
          68 203 11 26 75 166 rrcurveto
          hintmask 1011011010000000
          -8 16 rlineto
          endchar
        </CharString>
        <CharString name="seveninferior">
          -309 -140 -21 412 90 30 -20 hstem
          101 341 -34 callsubr
        </CharString>
        <CharString name="sevensuperior">
          -308 430 -21 412 90 30 -20 hstem
          101 911 -34 callsubr
        </CharString>
        <CharString name="six">
          -77 -10 45 372 57 313 -20 hstem
          55 117 262 119 vstem
          300 -55 callsubr
        </CharString>
        <CharString name="six.denominator">
          -282 -10 43 callsubr
          -10 -43 callgsubr
        </CharString>
        <CharString name="six.numerator">
          -283 314 43 callsubr
          314 -43 callgsubr
        </CharString>
        <CharString name="six.oldstyle">
          -136 -10 45 342 57 323 -20 hstem
          52 117 202 119 vstem
          270 -10 rmoveto
          129 91 94 135 125 -78 90 -107 -51 -48 -20 -32 -23 hvcurveto
          -4 2 22 146 85 116 166 89 rlinecurve
          -13 22 rlineto
          -238 -83 -149 -188 -221 vvcurveto
          -171 82 -104 136 vhcurveto
          3 45 rmoveto
          -64 -40 72 109 39 5 39 7 29 hvcurveto
          34 19 30 20 35 hhcurveto
          64 42 -69 -107 -102 -38 -64 -60 hvcurveto
          endchar
        </CharString>
        <CharString name="six.tnum">
          -67 -10 45 372 57 313 -20 hstem
          65 117 262 119 vstem
          310 -55 callsubr
        </CharString>
        <CharString name="sixinferior">
          -255 -161 42 callsubr
          -161 -44 callgsubr
        </CharString>
        <CharString name="sixsuperior">
          -255 409 42 callsubr
          409 -44 callgsubr
        </CharString>
        <CharString name="slash">
          -304 79 callsubr
          115 37 callsubr
        </CharString>
        <CharString name="slash.tnum">
          79 callsubr
          83 37 callsubr
        </CharString>
        <CharString name="space">
          -395 endchar
        </CharString>
        <CharString name="sterling">
          11 28 callgsubr
          32 50 hintmask 01011101
          240 -78 callgsubr
        </CharString>
        <CharString name="sterling.tnum">
          -67 28 callgsubr
          6 50 hintmask 01011101
          214 -78 callgsubr
        </CharString>
        <CharString name="t">
          -317 -10 49 callsubr
          hstem
          96 95 vstem
          207 -10 rmoveto
          54 52 29 46 30 hvcurveto
          -91 callgsubr
          22 callsubr
          endchar
        </CharString>
        <CharString name="tbar">
          -314 -10 47 300 38 120 35 131 -20 hstem
          97 95 vstem
          33 337 rmoveto
          64 -205 hlineto
          16 callgsubr
          22 callsubr
          49 callgsubr
          -25 -20 -29 -16 -27 hhcurveto
          -22 -18 10 18 -10 hvcurveto
          -7 12 -2 15 49 vvcurveto
          196 138 38 -138 120 -19 callgsubr
          129 hlineto
          -18 2 -144 -150 2 -16 rlineto
          65 -120 -64 hlineto
          endchar
        </CharString>
        <CharString name="tcaron">
          -317 -10 47 458 35 327 -20 hstem
          96 95 80 84 vstem
          207 -10 rmoveto
          54 52 29 46 30 hvcurveto
          -91 callgsubr
          22 callsubr
          87 652 -50 callsubr
        </CharString>
        <CharString name="tdotbelow">
          -317 -3 callgsubr
          117 49 callsubr
          hstemhm
          96 95 -45 129 hintmask 11111000
          207 -10 rmoveto
          54 52 29 46 30 hvcurveto
          -91 callgsubr
          22 callsubr
          hintmask 11110100
          -61 -182 -103 callgsubr
          endchar
        </CharString>
        <CharString name="thorn">
          -64 -229 -21 240 30 466 77 callsubr
          283 20 rmoveto
          -60 -40 40 58 hvcurveto
          316 vlineto
          33 27 40 19 44 hhcurveto
          95 60 -86 -137 -143 -68 -100 -98 hvcurveto
          -9 -30 rmoveto
          169 113 117 175 154 -88 104 -131 -61 -51 -22 -46 -42 hvcurveto
          358 -10 vlineto
          -159 40 callgsubr
          -27 rlineto
          -957 vlineto
          -75 -15 rlineto
          -19 265 19 vlineto
          -99 15 rlineto
          221 vlineto
          -10 30 32 -5 34 hhcurveto
          endchar
        </CharString>
        <CharString name="three">
          -113 -10 45 -45 197 523 70 hstemhm
          338 111 -45 93 hintmask 10101000
          175 -59 callgsubr
        </CharString>
        <CharString name="three.denominator">
          -303 -10 47 callsubr
          hstemhm
          207 82 -54 81 hintmask 10100100
          113 210 rmoveto
          -28 callgsubr
          hintmask 01100100
          -67 callgsubr
          hintmask 10011000
          -84 callgsubr
          endchar
        </CharString>
        <CharString name="three.numerator">
          -304 315 47 callsubr
          hstemhm
          208 82 -54 81 hintmask 10100100
          114 535 rmoveto
          -28 callgsubr
          hintmask 01100100
          -67 callgsubr
          hintmask 10011000
          -84 callgsubr
          endchar
        </CharString>
        <CharString name="three.oldstyle">
          -199 -212 45 -45 92 590 70 hstemhm
          289 113 -82 103 hintmask 10101000
          126 149 rmoveto
          3 25 19 2 12 hhcurveto
          76 62 -71 -87 -90 -65 -73 -79 hvcurveto
          hintmask 01101000
          -66 -16 47 -39 hhcurveto
          -20 -13 -12 -19 -36 52 -25 74 154 121 111 136 94 -60 80 -89 20 hvcurveto
          4 vlineto
          hintmask 10110000
          79 41 49 65 68 vvcurveto
          77 -62 56 -82 -92 -79 -68 -95 -18 vhcurveto
          24 -6 rlineto
          58 23 50 41 48 hhcurveto
          45 30 -39 -58 -82 -60 -70 -109 -45 hvcurveto
          endchar
        </CharString>
        <CharString name="three.tnum">
          -67 -10 45 -45 197 523 70 hstemhm
          364 111 -45 93 hintmask 10101000
          201 -59 callgsubr
        </CharString>
        <CharString name="threeeighths">
          185 -10 36 -5 -21 315 38 -38 125 -20 35 83 242 -55 55 -10 -20 hstemhm
          212 82 -54 81 186 9 callgsubr
          hintmask 0110100110101000
          217 hmoveto
          -69 callsubr
          -30 535 rmoveto
          hintmask 1010110001101000
          -28 callgsubr
          hintmask 1001010001101000
          -67 callgsubr
          hintmask 1010101010011000
          -84 callgsubr
          600 -305 -61 callgsubr
          hintmask 1010110010100100
          -83 callgsubr
          hintmask 1010110010101000
          -31 callgsubr
          hintmask 1010110010100100
          -13 callgsubr
        </CharString>
        <CharString name="threeinferior">
          -279 -161 42 -42 139 317 61 hstemhm
          223 92 -60 90 hintmask 10101000
          119 84 -54 callsubr
        </CharString>
        <CharString name="threequarters">
          150 0 171 -57 57 144 47 callsubr
          -10 -20 hstemhm
          212 82 -54 81 316 81 hintmask 1010001101000000
          217 hmoveto
          -69 callsubr
          489 36 6 callgsubr
          hintmask 0110100011000000
          -60 callgsubr
          -519 200 rmoveto
          -28 callgsubr
          hintmask 1001100011000000
          -67 callgsubr
          hintmask 1010010101000000
          -84 callgsubr
          endchar
        </CharString>
        <CharString name="threesuperior">
          -278 409 42 -42 139 317 61 hstemhm
          224 92 -60 90 hintmask 10101000
          120 654 -54 callsubr
        </CharString>
        <CharString name="tilde">
          -340 682 80 -58 -21 38 -33 callsubr
          hintmask 01101000
          34 683 -50 callgsubr
          hintmask 10001000
          -93 callsubr
          hintmask 01010000
          -77 callsubr
        </CharString>
</ttFont>
